{
	"asset":{
		"generator":"Khronos glTF Blender I/O v3.5.30",
		"version":"2.0"
	},
	"extensionsUsed":[
		"KHR_materials_unlit"
	],
	"scene":0,
	"scenes":[
		{
			"name":"Scene",
			"nodes":[
				1
			]
		}
	],
	"nodes":[
		{
			"mesh":0,
			"name":"exhaust-sprite",
			"translation":[
				0,
				-5.400000095367432,
				0.30000001192092896
			]
		},
		{
			"children":[
				0
			],
			"mesh":1,
			"name":"spacecraft"
		}
	],
	"animations":[
		{
			"channels":[
				{
					"sampler":0,
					"target":{
						"node":1,
						"path":"translation"
					}
				},
				{
					"sampler":1,
					"target":{
						"node":1,
						"path":"rotation"
					}
				},
				{
					"sampler":2,
					"target":{
						"node":1,
						"path":"scale"
					}
				}
			],
			"name":"spacecraft",
			"samplers":[
				{
					"input":12,
					"interpolation":"LINEAR",
					"output":13
				},
				{
					"input":12,
					"interpolation":"LINEAR",
					"output":14
				},
				{
					"input":12,
					"interpolation":"LINEAR",
					"output":15
				}
			]
		},
		{
			"channels":[
				{
					"sampler":0,
					"target":{
						"node":0,
						"path":"translation"
					}
				},
				{
					"sampler":1,
					"target":{
						"node":0,
						"path":"rotation"
					}
				},
				{
					"sampler":2,
					"target":{
						"node":0,
						"path":"scale"
					}
				}
			],
			"name":"exhaust-sprite",
			"samplers":[
				{
					"input":12,
					"interpolation":"LINEAR",
					"output":16
				},
				{
					"input":12,
					"interpolation":"LINEAR",
					"output":17
				},
				{
					"input":12,
					"interpolation":"LINEAR",
					"output":18
				}
			]
		}
	],
	"materials":[
		{
			"alphaMode":"BLEND",
			"doubleSided":true,
			"extensions":{
				"KHR_materials_unlit":{}
			},
			"name":"Material.005",
			"pbrMetallicRoughness":{
				"baseColorTexture":{
					"index":0,
					"texCoord":0
				},
				"metallicFactor":0,
				"roughnessFactor":0.9
			}
		},
		{
			"doubleSided":true,
			"name":"Windshield",
			"pbrMetallicRoughness":{
				"baseColorFactor":[
					0,
					0.05771980807185173,
					0.19997979700565338,
					1
				],
				"metallicFactor":0,
				"roughnessFactor":0
			}
		},
		{
			"doubleSided":true,
			"name":"Hull 1",
			"pbrMetallicRoughness":{
				"baseColorFactor":[
					0.8999999761581421,
					1,
					0.9013491868972778,
					1
				],
				"metallicFactor":0,
				"roughnessFactor":0.699999988079071
			}
		}
	],
	"meshes":[
		{
			"name":"Plane.002",
			"primitives":[
				{
					"attributes":{
						"POSITION":0,
						"TEXCOORD_0":1,
						"NORMAL":2
					},
					"indices":3,
					"material":0
				}
			]
		},
		{
			"name":"Cylinder",
			"primitives":[
				{
					"attributes":{
						"POSITION":4,
						"TEXCOORD_0":5,
						"NORMAL":6
					},
					"indices":7,
					"material":1
				},
				{
					"attributes":{
						"POSITION":8,
						"TEXCOORD_0":9,
						"NORMAL":10
					},
					"indices":11,
					"material":2
				}
			]
		}
	],
	"textures":[
		{
			"sampler":0,
			"source":0
		}
	],
	"images":[
		{
			"bufferView":4,
			"mimeType":"image/png",
			"name":"asteroids-exhaust-render"
		}
	],
	"accessors":[
		{
			"bufferView":0,
			"componentType":5126,
			"count":4,
			"max":[
				7.5,
				7.5,
				0
			],
			"min":[
				-7.5,
				-7.5,
				0
			],
			"type":"VEC3"
		},
		{
			"bufferView":1,
			"componentType":5126,
			"count":4,
			"type":"VEC2"
		},
		{
			"bufferView":2,
			"componentType":5126,
			"count":4,
			"type":"VEC3"
		},
		{
			"bufferView":3,
			"componentType":5123,
			"count":6,
			"type":"SCALAR"
		},
		{
			"bufferView":5,
			"componentType":5126,
			"count":76,
			"max":[
				1.1212977170944214,
				2.2133402824401855,
				1.6355719566345215
			],
			"min":[
				-1.1212977170944214,
				-0.9246906042098999,
				0.5789206624031067
			],
			"type":"VEC3"
		},
		{
			"bufferView":6,
			"componentType":5126,
			"count":76,
			"type":"VEC2"
		},
		{
			"bufferView":7,
			"componentType":5126,
			"count":76,
			"type":"VEC3"
		},
		{
			"bufferView":8,
			"componentType":5123,
			"count":324,
			"type":"SCALAR"
		},
		{
			"bufferView":9,
			"componentType":5126,
			"count":827,
			"max":[
				3.7261404991149902,
				6.908113956451416,
				1.7821195125579834
			],
			"min":[
				-3.7261404991149902,
				-5.579606056213379,
				-1.127255916595459
			],
			"type":"VEC3"
		},
		{
			"bufferView":10,
			"componentType":5126,
			"count":827,
			"type":"VEC2"
		},
		{
			"bufferView":11,
			"componentType":5126,
			"count":827,
			"type":"VEC3"
		},
		{
			"bufferView":12,
			"componentType":5123,
			"count":3012,
			"type":"SCALAR"
		},
		{
			"bufferView":13,
			"componentType":5126,
			"count":2,
			"max":[
				0.041666666666666664
			],
			"min":[
				0
			],
			"type":"SCALAR"
		},
		{
			"bufferView":14,
			"componentType":5126,
			"count":2,
			"type":"VEC3"
		},
		{
			"bufferView":15,
			"componentType":5126,
			"count":2,
			"type":"VEC4"
		},
		{
			"bufferView":16,
			"componentType":5126,
			"count":2,
			"type":"VEC3"
		},
		{
			"bufferView":17,
			"componentType":5126,
			"count":2,
			"type":"VEC3"
		},
		{
			"bufferView":18,
			"componentType":5126,
			"count":2,
			"type":"VEC4"
		},
		{
			"bufferView":19,
			"componentType":5126,
			"count":2,
			"type":"VEC3"
		}
	],
	"bufferViews":[
		{
			"buffer":0,
			"byteLength":48,
			"byteOffset":0,
			"target":34962
		},
		{
			"buffer":0,
			"byteLength":32,
			"byteOffset":48,
			"target":34962
		},
		{
			"buffer":0,
			"byteLength":48,
			"byteOffset":80,
			"target":34962
		},
		{
			"buffer":0,
			"byteLength":12,
			"byteOffset":128,
			"target":34963
		},
		{
			"buffer":0,
			"byteLength":39285,
			"byteOffset":140
		},
		{
			"buffer":0,
			"byteLength":912,
			"byteOffset":39428,
			"target":34962
		},
		{
			"buffer":0,
			"byteLength":608,
			"byteOffset":40340,
			"target":34962
		},
		{
			"buffer":0,
			"byteLength":912,
			"byteOffset":40948,
			"target":34962
		},
		{
			"buffer":0,
			"byteLength":648,
			"byteOffset":41860,
			"target":34963
		},
		{
			"buffer":0,
			"byteLength":9924,
			"byteOffset":42508,
			"target":34962
		},
		{
			"buffer":0,
			"byteLength":6616,
			"byteOffset":52432,
			"target":34962
		},
		{
			"buffer":0,
			"byteLength":9924,
			"byteOffset":59048,
			"target":34962
		},
		{
			"buffer":0,
			"byteLength":6024,
			"byteOffset":68972,
			"target":34963
		},
		{
			"buffer":0,
			"byteLength":8,
			"byteOffset":74996
		},
		{
			"buffer":0,
			"byteLength":24,
			"byteOffset":75004
		},
		{
			"buffer":0,
			"byteLength":32,
			"byteOffset":75028
		},
		{
			"buffer":0,
			"byteLength":24,
			"byteOffset":75060
		},
		{
			"buffer":0,
			"byteLength":24,
			"byteOffset":75084
		},
		{
			"buffer":0,
			"byteLength":32,
			"byteOffset":75108
		},
		{
			"buffer":0,
			"byteLength":24,
			"byteOffset":75140
		}
	],
	"samplers":[
		{
			"magFilter":9729,
			"minFilter":9987
		}
	],
	"buffers":[
		{
			"byteLength":75164,
			"uri":"data:application/octet-stream;base64,"
		}
	]
}
