{
	"asset":{
		"copyright":"Patrick Nausha",
		"generator":"Khronos glTF Blender I/O v3.5.30",
		"version":"2.0"
	},
	"scene":0,
	"scenes":[
		{
			"name":"Scene",
			"nodes":[
				0
			]
		}
	],
	"nodes":[
		{
			"mesh":0,
			"name":"Spacecraft"
		}
	],
	"materials":[
		{
			"doubleSided":true,
			"name":"Windshield",
			"pbrMetallicRoughness":{
				"baseColorFactor":[
					0,
					0,
					0,
					1
				],
				"metallicFactor":0,
				"roughnessFactor":0
			}
		},
		{
			"doubleSided":true,
			"name":"Hull 1",
			"pbrMetallicRoughness":{
				"baseColorFactor":[
					0.800000011920929,
					0.800000011920929,
					0.800000011920929,
					1
				],
				"metallicFactor":0,
				"roughnessFactor":0.5
			}
		}
	],
	"meshes":[
		{
			"name":"Cylinder",
			"primitives":[
				{
					"attributes":{
						"POSITION":0,
						"TEXCOORD_0":1,
						"NORMAL":2
					},
					"indices":3,
					"material":0
				},
				{
					"attributes":{
						"POSITION":4,
						"TEXCOORD_0":5,
						"NORMAL":6
					},
					"indices":7,
					"material":1
				}
			]
		}
	],
	"accessors":[
		{
			"bufferView":0,
			"componentType":5126,
			"count":76,
			"max":[
				0.9376509189605713,
				1.8486384153366089,
				1.4175485372543335
			],
			"min":[
				-0.9376509189605713,
				-0.7663872838020325,
				0.5370058417320251
			],
			"type":"VEC3"
		},
		{
			"bufferView":1,
			"componentType":5126,
			"count":76,
			"type":"VEC2"
		},
		{
			"bufferView":2,
			"componentType":5126,
			"count":76,
			"type":"VEC3"
		},
		{
			"bufferView":3,
			"componentType":5123,
			"count":324,
			"type":"SCALAR"
		},
		{
			"bufferView":4,
			"componentType":5126,
			"count":827,
			"max":[
				3.1083531379699707,
				5.760949611663818,
				1.5396714210510254
			],
			"min":[
				-3.1083531379699707,
				-4.645483493804932,
				-0.8848079442977905
			],
			"type":"VEC3"
		},
		{
			"bufferView":5,
			"componentType":5126,
			"count":827,
			"type":"VEC2"
		},
		{
			"bufferView":6,
			"componentType":5126,
			"count":827,
			"type":"VEC3"
		},
		{
			"bufferView":7,
			"componentType":5123,
			"count":3012,
			"type":"SCALAR"
		}
	],
	"bufferViews":[
		{
			"buffer":0,
			"byteLength":912,
			"byteOffset":0,
			"target":34962
		},
		{
			"buffer":0,
			"byteLength":608,
			"byteOffset":912,
			"target":34962
		},
		{
			"buffer":0,
			"byteLength":912,
			"byteOffset":1520,
			"target":34962
		},
		{
			"buffer":0,
			"byteLength":648,
			"byteOffset":2432,
			"target":34963
		},
		{
			"buffer":0,
			"byteLength":9924,
			"byteOffset":3080,
			"target":34962
		},
		{
			"buffer":0,
			"byteLength":6616,
			"byteOffset":13004,
			"target":34962
		},
		{
			"buffer":0,
			"byteLength":9924,
			"byteOffset":19620,
			"target":34962
		},
		{
			"buffer":0,
			"byteLength":6024,
			"byteOffset":29544,
			"target":34963
		}
	],
	"buffers":[
		{
			"byteLength":35568,
			"uri":"data:application/octet-stream;base64,"
		}
	]
}
