<svg xmlns="http://www.w3.org/2000/svg" viewBox="0 0 576 576">
    <g data-name="Layer 2">
        <g data-name="Layer 4">
            <ellipse cx="169.67" cy="224.46" rx="1.74" ry="1.82" stroke-miterlimit="10" stroke="#fff" fill="#fff"/>
            <ellipse cx="234.88" cy="199.04" rx="1.18" ry="1.11" stroke-miterlimit="10" stroke="#fff" fill="#fff"/>
            <circle cx="135.4" cy="217.43" r="1.5" stroke-miterlimit="10" stroke="#fff" fill="#fff"/>
            <circle cx="191.3" cy="305.54" r="3.39" stroke-miterlimit="10" stroke="#fff" fill="#fff"/>
            <circle cx="301.11" cy="136.35" r=".87" stroke-miterlimit="10" stroke="#fff" fill="#fff"/>
            <circle cx="253.98" cy="291.72" r="1.11" stroke-miterlimit="10" stroke="#fff" fill="#fff"/>
            <circle cx="348.56" cy="256.27" r="1.5" stroke-miterlimit="10" stroke="#fff" fill="#fff"/>
            <circle cx="388.35" cy="205.83" r="2.21" stroke-miterlimit="10" stroke="#fff" fill="#fff"/>
            <circle cx="232.98" cy="190.83" r="1.42" stroke-miterlimit="10" stroke="#fff" fill="#fff"/>
            <circle cx="319.19" cy="272.93" r="2.05" stroke-miterlimit="10" stroke="#fff" fill="#fff"/>
            <circle cx="162.88" cy="251.93" r="1.26" stroke-miterlimit="10" stroke="#fff" fill="#fff"/>
            <circle cx="230.14" cy="238.59" r="2.76" stroke-miterlimit="10" stroke="#fff" fill="#fff"/>
            <circle cx="180.09" cy="281.3" r="1.11" stroke-miterlimit="10" stroke="#fff" fill="#fff"/>
            <circle cx="260.77" cy="261.4" r="1.26" stroke-miterlimit="10" stroke="#fff" fill="#fff"/>
            <circle cx="243.88" cy="246.25" r="1.42" stroke-miterlimit="10" stroke="#fff" fill="#fff"/>
            <circle cx="302.14" cy="283.9" r="1.66" stroke-miterlimit="10" stroke="#fff" fill="#fff"/>
            <circle cx="180.88" cy="231.09" r="1.66" stroke-miterlimit="10" stroke="#fff" fill="#fff"/>
            <circle cx="229.19" cy="173.3" r=".95" stroke-miterlimit="10" stroke="#fff" fill="#fff"/>
            <circle cx="164.77" cy="188.46" r="2.05" stroke-miterlimit="10" stroke="#fff" fill="#fff"/>
            <circle cx="345.09" cy="282.25" r="1.26" stroke-miterlimit="10" stroke="#fff" fill="#fff"/>
            <circle cx="253.59" cy="307.83" r="1.18" stroke-miterlimit="10" stroke="#fff" fill="#fff"/>
            <circle cx="333.4" cy="143.22" r="3.08" stroke-miterlimit="10" stroke="#fff" fill="#fff"/>
            <circle cx="384.56" cy="165.72" r=".95" stroke-miterlimit="10" stroke="#fff" fill="#fff"/>
            <circle cx="334.35" cy="199.59" r="1.66" stroke-miterlimit="10" stroke="#fff" fill="#fff"/>
            <circle cx="216.88" cy="139.67" r="1.42" stroke-miterlimit="10" stroke="#fff" fill="#fff"/>
            <circle cx="286.04" cy="227.06" r="1.66" stroke-miterlimit="10" stroke="#fff" fill="#fff"/>
            <circle cx="350.46" cy="226.67" r="1.26" stroke-miterlimit="10" stroke="#fff" fill="#fff"/>
            <circle cx="432.88" cy="189.4" r=".95" stroke-miterlimit="10" stroke="#fff" fill="#fff"/>
            <circle cx="400.67" cy="217.83" r="1.66" stroke-miterlimit="10" stroke="#fff" fill="#fff"/>
            <circle cx="196.98" cy="261.96" r="2.45" stroke-miterlimit="10" stroke="#fff" fill="#fff"/>
            <circle cx="393.25" cy="277.51" r="1.74" stroke-miterlimit="10" stroke="#fff" fill="#fff"/>
            <circle cx="392.14" cy="232.04" r="1.74" stroke-miterlimit="10" stroke="#fff" fill="#fff"/>
            <circle cx="199.9" cy="207.4" r="1.82" stroke-miterlimit="10" stroke="#fff" fill="#fff"/>
            <circle cx="282.01" cy="180.88" r="1.18" stroke-miterlimit="10" stroke="#fff" fill="#fff"/>
            <circle cx="250.67" cy="207.4" r="1.58" stroke-miterlimit="10" stroke="#fff" fill="#fff"/>
            <circle cx="120.25" cy="238.75" r="1.97" stroke-miterlimit="10" stroke="#fff" fill="#fff"/>
            <circle cx="302.14" cy="317.93" r="1.58" stroke-miterlimit="10" stroke="#fff" fill="#fff"/>
            <circle cx="222.56" cy="273.64" r="2.76" stroke-miterlimit="10" stroke="#fff" fill="#fff"/>
            <circle cx="293.06" cy="121.19" r="1.34" stroke-miterlimit="10" stroke="#fff" fill="#fff"/>
            <circle cx="126.88" cy="193.43" r="3.08" stroke-miterlimit="10" stroke="#fff" fill="#fff"/>
            <circle cx="254.77" cy="163.83" r=".95" fill="#fff" stroke-miterlimit="10" stroke="#fff"/>
            <circle cx="299.93" cy="263.3" r="1.58" stroke-miterlimit="10" stroke="#fff" fill="#fff"/>
            <circle cx="163.04" cy="296.46" r="1.11" stroke-miterlimit="10" stroke="#fff" fill="#fff"/>
            <circle cx="320.54" cy="157.19" r="1.34" stroke-miterlimit="10" stroke="#fff" fill="#fff"/>
            <circle cx="373.19" cy="142.98" r="2.45" stroke-miterlimit="10" stroke="#fff" fill="#fff"/>
            <circle cx="236.77" cy="138.64" r="1.34" stroke-miterlimit="10" stroke="#fff" fill="#fff"/>
            <circle cx="187.59" cy="144.88" r="1.03" stroke-miterlimit="10" stroke="#fff" fill="#fff"/>
            <circle cx="321.09" cy="308.61" r="2.68" stroke-miterlimit="10" stroke="#fff" fill="#fff"/>
            <circle cx="461.77" cy="225.4" r="1.42" stroke-miterlimit="10" stroke="#fff" fill="#fff"/>
            <circle cx="213.09" cy="152.46" r="2.61" stroke-miterlimit="10" stroke="#fff" fill="#fff"/>
            <circle cx="451.82" cy="218.77" r="1.89" stroke-miterlimit="10" stroke="#fff" fill="#fff"/>
            <circle cx="240.4" cy="311.61" r="1.74" stroke-miterlimit="10" stroke="#fff" fill="#fff"/>
            <circle cx="368.46" cy="242.77" r="1.26" stroke-miterlimit="10" stroke="#fff" fill="#fff"/>
            <circle cx="366.25" cy="273.72" r="1.58" stroke-miterlimit="10" stroke="#fff" fill="#fff"/>
            <circle cx="416.77" cy="246.72" r="2.37" stroke-miterlimit="10" stroke="#fff" fill="#fff"/>
            <circle cx="303.09" cy="198.72" r="2.68" stroke-miterlimit="10" stroke="#fff" fill="#fff"/>
            <circle cx="286.11" cy="304.98" r="2.76" stroke-miterlimit="10" stroke="#fff" fill="#fff"/>
            <circle cx="410.14" cy="285.56" r="1.42" stroke-miterlimit="10" stroke="#fff" fill="#fff"/>
            <circle cx="227.3" cy="320.14" r="1.26" stroke-miterlimit="10" stroke="#fff" fill="#fff"/>
            <circle cx="369.56" cy="171.4" r="1.11" stroke-miterlimit="10" stroke="#fff" fill="#fff"/>
            <circle cx="411.09" cy="217.11" r="1.18" stroke-miterlimit="10" stroke="#fff" fill="#fff"/>
            <circle cx="402.56" cy="194.61" r="1.42" stroke-miterlimit="10" stroke="#fff" fill="#fff"/>
            <circle cx="437.61" cy="171.4" r="1.26" stroke-miterlimit="10" stroke="#fff" fill="#fff"/>
            <circle cx="472.67" cy="199.83" r="1.5" stroke-miterlimit="10" stroke="#fff" fill="#fff"/>
            <circle cx="360.88" cy="219.72" r="1.03" stroke-miterlimit="10" stroke="#fff" fill="#fff"/>
            <circle cx="273.72" cy="279.4" r="1.42" stroke-miterlimit="10" stroke="#fff" fill="#fff"/>
            <circle cx="339.4" cy="264.25" r="1.26" stroke-miterlimit="10" stroke="#fff" fill="#fff"/>
            <path d="M271.19 202.35c-12.63 3-21.31 22.26-18.15 35.21 3.11 12.76 16.89 23.21 33.94 20.69 0 0-23.6-6.57-25.73-24.48-2.06-17.21 12.1-31.93 9.94-31.42z" stroke-linecap="round" stroke-width="2" fill="none" stroke-linejoin="round" stroke="#fff"/>
            <path fill="none" stroke-linejoin="round" stroke="#fff" d="M261.99 129.82l-1.38 3.62-4.14 1.27 2.65 1.49-.53 4.89 3.29-3.08 3.3 2.02-.96-4.57 2.55-2.87-3.29.1-1.49-2.87z"/>
            <path fill="none" stroke-linejoin="round" stroke="#fff" d="M410.81 162.06l-1.56 1.8-2.36-.47.55 2.12-1.72 2.74 3.06-1.02 1.72 1.81.47-3.06 1.8-1.02-1.72-.7-.24-2.2z"/>
            <path fill="none" stroke-linejoin="round" stroke="#fff" d="M211.7 225.13l-1.88 2.15-2.8-.56.65 2.53-2.05 3.27 3.64-1.21 2.06 2.15.56-3.65 2.16-1.22-2.06-.84-.28-2.62z"/>
            <path fill="none" stroke-linejoin="round" stroke="#fff" d="M446.61 253.67l-2.68 4.73-5.37-.78 3 4.1-3.31 4.42 4.73-2.37 3.79 3.48.63-5.69 3.64-2.68-3.95-.32-.48-4.89z"/>
            <path fill="none" stroke-linejoin="round" stroke="#fff" d="M190.19 165.72l-2.21 5.84-4.73 1.74 3 1.74-.79 6.47 3.79-4.26 4.1 1.1-1.1-4.1 3.31-3.16-4.26-.32-1.11-5.05z"/>
            <path fill="none" stroke-linejoin="round" stroke="#fff" d="M377.57 208.32l-1.36 3.59-2.91 1.07 1.84 1.07-.48 3.99 2.33-2.63 2.53.68-.68-2.52 2.04-1.95-2.63-.19-.68-3.11z"/>
            <path fill="none" stroke-linejoin="round" stroke="#fff" d="M359.29 300.48l-2.05 3.13-4.22-.24 1.09 3.86-3.5 4.82 5.79-2.17 2.77 4.58-.12-6.51 4.46-2.05-3.98-1.57-.24-3.85z"/>
            <path fill="none" stroke-linejoin="round" stroke="#fff" d="M315.25 223.51l-1.74 4.74-4.89 1.42 2.84 3.95-.48 4.42 3.32-2.53 3.95 2.53-.79-6.16 2.52-3.79h-3.16l-1.57-4.58z"/>
            <path fill="none" stroke-linejoin="round" stroke="#fff" d="M301.51 159.56l-2.21 3.32-5.05-.79 2.37 4.26-2.06 3.95 3.95-1.26 3.47 3.94v-5.68l3.95-3.32-3.47-.31-.95-4.11z"/>
            <path fill="none" stroke-linejoin="round" stroke="#fff" d="M353.94 172.77l-3.08 4-4.9-.37 1.99 4.54-3.81 6.54 5.99-3.09 3.81 4.54.19-6.53 5.08-3.82-5.08-.9-.19-4.91z"/>
            <path fill="none" stroke-linejoin="round" stroke="#fff" d="M134.54 271.36l-1.47 3.06-3.51.11 2.38 3.06-1.81 3.39 3.62-2.37 2.49 1.58-.79-3.62 2.37-2.26-3.16-.23-.12-2.72z"/>
            <path fill="none" stroke-linejoin="round" stroke="#fff" d="M223.82 283.98l1.9 5.37-4.58 5.53 6.32-1.9 3.94 3.79v-5.68l6.79-3-5.84-2.05v-3.95l-3.16 2.05-5.37-.16z"/>
        </g>
    </g>
</svg>
