<svg id="svg" version="1.1" xmlns="http://www.w3.org/2000/svg" xmlns:xlink="http://www.w3.org/1999/xlink" width="400" height="221.7989417989418" viewBox="0, 0, 400,221.7989417989418"><g id="svgg"><path id="path0" d="M201.366 15.758 C 200.000 17.124,201.559 19.447,203.307 18.651 C 203.998 18.336,204.509 17.129,204.245 16.434 C 203.786 15.226,202.256 14.867,201.366 15.758 M170.620 25.132 C 170.516 25.336,170.177 26.178,169.866 27.004 L 169.301 28.505 167.286 29.100 C 164.421 29.946,164.116 30.767,166.250 31.883 C 167.566 32.570,167.539 32.466,167.178 35.407 C 166.809 38.418,167.572 38.719,169.933 36.492 L 171.408 35.101 172.859 35.963 C 175.384 37.463,175.797 37.040,175.113 33.655 L 174.706 31.640 175.924 30.206 C 177.742 28.067,177.523 27.513,174.861 27.513 L 173.398 27.513 173.003 26.638 C 172.212 24.883,171.103 24.183,170.620 25.132 M173.088 29.489 C 173.895 29.489,173.894 29.478,173.201 30.387 C 172.634 31.130,172.611 31.628,173.058 33.423 L 173.186 33.937 172.441 33.476 C 171.429 32.851,170.945 32.896,170.027 33.702 L 169.246 34.388 169.393 33.090 C 169.541 31.777,169.281 31.111,168.620 31.111 C 168.200 31.111,168.739 30.774,169.759 30.399 C 170.583 30.096,170.789 29.902,171.085 29.148 L 171.435 28.256 171.927 28.872 C 172.284 29.319,172.602 29.489,173.088 29.489 M209.735 31.323 C 209.197 31.861,209.194 32.632,209.728 33.115 C 210.951 34.221,212.642 32.750,211.629 31.462 C 211.098 30.787,210.328 30.730,209.735 31.323 M144.777 33.362 C 143.931 34.438,144.405 35.874,145.739 36.277 C 146.814 36.602,148.127 35.284,147.845 34.163 C 147.502 32.796,145.611 32.302,144.777 33.362 M124.973 34.162 C 123.900 35.234,124.085 36.560,125.395 37.185 C 127.425 38.153,129.055 35.237,127.137 34.068 C 126.230 33.515,125.592 33.543,124.973 34.162 M241.519 35.899 C 239.230 37.067,238.880 40.633,240.922 41.971 C 243.406 43.599,246.561 41.953,246.561 39.030 C 246.561 36.656,243.619 34.829,241.519 35.899 M281.799 36.181 C 281.220 36.420,280.498 37.232,280.226 37.950 C 278.947 41.324,283.953 43.306,285.529 40.051 C 286.664 37.706,284.226 35.177,281.799 36.181 M95.783 39.697 C 94.933 40.547,95.286 41.923,96.427 42.210 C 97.739 42.539,98.747 40.757,97.790 39.801 C 97.273 39.283,96.249 39.231,95.783 39.697 M120.952 45.672 C 119.084 46.863,118.726 49.038,120.161 50.475 C 122.155 52.472,125.362 51.145,125.362 48.323 C 125.362 46.168,122.692 44.564,120.952 45.672 M228.798 51.986 C 227.935 53.084,228.446 54.546,229.810 54.877 C 230.806 55.119,231.958 54.086,231.958 52.949 C 231.958 51.610,229.648 50.906,228.798 51.986 M210.091 55.291 C 209.809 55.669,209.315 56.384,208.994 56.878 C 208.672 57.373,208.351 57.777,208.279 57.777 C 208.207 57.777,207.291 57.635,206.243 57.463 C 202.397 56.831,202.120 57.131,203.783 60.119 C 205.084 62.457,205.072 62.249,204.021 64.339 C 202.589 67.186,202.965 67.681,205.872 66.774 L 207.682 66.210 209.534 68.171 C 212.109 70.897,212.355 70.764,212.440 66.594 L 212.499 63.715 214.300 62.198 C 217.450 59.545,217.338 59.183,213.240 58.771 C 212.908 58.738,212.738 58.369,212.357 56.848 C 211.744 54.404,211.088 53.953,210.091 55.291 M319.496 57.963 C 318.749 58.729,318.643 58.771,317.919 58.603 C 316.044 58.168,315.565 58.594,315.981 60.328 C 316.223 61.336,316.210 61.394,315.454 62.638 C 314.135 64.810,314.660 65.563,316.971 64.811 L 318.404 64.345 319.263 65.189 C 320.646 66.547,321.097 66.320,321.489 64.069 C 321.720 62.741,321.797 62.604,322.613 62.056 C 323.892 61.196,323.814 60.154,322.444 59.810 C 321.946 59.685,321.701 59.155,321.696 58.190 C 321.689 56.917,320.625 56.807,319.496 57.963 M210.906 59.296 C 211.060 60.209,211.275 60.425,212.241 60.631 L 212.948 60.783 211.765 61.837 L 210.582 62.891 210.578 64.620 L 210.574 66.349 209.523 65.238 C 208.423 64.076,207.970 63.924,206.863 64.345 C 206.083 64.641,206.037 64.520,206.546 63.521 C 207.127 62.382,207.101 62.000,206.349 60.668 C 206.000 60.049,205.714 59.496,205.714 59.438 C 205.714 59.381,206.449 59.449,207.347 59.590 C 209.295 59.896,209.291 59.897,209.945 58.839 C 210.511 57.923,210.688 58.007,210.906 59.296 M163.175 58.836 C 162.301 59.709,162.955 61.164,164.221 61.164 C 165.397 61.164,165.985 59.410,165.032 58.742 C 164.391 58.293,163.682 58.329,163.175 58.836 M164.535 59.613 C 164.655 59.927,164.362 60.305,163.991 60.314 C 163.724 60.321,163.635 59.730,163.868 59.497 C 164.197 59.168,164.376 59.199,164.535 59.613 M293.630 60.479 C 292.867 60.988,292.741 62.049,293.373 62.637 C 294.332 63.530,295.661 62.948,295.661 61.636 C 295.661 60.659,294.419 59.952,293.630 60.479 M320.098 60.728 C 320.340 61.119,319.708 62.661,319.366 62.515 C 319.191 62.440,318.844 62.335,318.595 62.281 C 317.754 62.097,318.025 60.877,318.942 60.718 C 319.349 60.647,319.748 60.576,319.829 60.559 C 319.909 60.543,320.030 60.619,320.098 60.728 M98.613 61.185 C 98.482 61.429,97.997 62.638,97.534 63.870 C 97.071 65.103,96.607 66.270,96.503 66.464 C 96.400 66.657,95.308 67.174,94.077 67.613 C 90.882 68.752,90.648 69.367,92.910 70.688 C 93.725 71.164,94.388 71.620,94.383 71.702 C 94.379 71.785,94.205 73.164,93.998 74.769 C 93.413 79.290,93.987 79.656,96.756 76.526 C 98.724 74.301,98.700 74.311,100.901 74.921 C 103.578 75.662,103.825 75.370,103.047 72.385 L 102.544 70.459 104.050 69.098 C 106.483 66.899,106.333 66.291,103.286 66.010 C 102.201 65.910,101.297 65.803,101.276 65.771 C 101.256 65.740,101.030 64.714,100.774 63.492 C 100.222 60.854,99.311 59.881,98.613 61.185 M99.366 66.248 C 99.546 67.312,99.947 67.724,100.809 67.728 C 102.409 67.735,102.491 67.888,101.435 68.901 C 100.391 69.901,100.414 69.766,100.861 72.209 L 101.004 72.990 99.992 72.685 C 98.349 72.191,98.007 72.271,96.992 73.386 L 96.078 74.392 96.214 72.442 L 96.350 70.493 95.582 70.041 C 94.623 69.475,94.578 69.560,96.138 68.997 C 97.854 68.378,97.877 68.356,98.450 66.758 C 99.019 65.172,99.170 65.087,99.366 66.248 M346.439 66.227 C 345.149 67.517,346.433 69.606,348.122 68.965 C 349.603 68.401,349.602 66.359,348.121 65.842 C 347.190 65.518,347.135 65.530,346.439 66.227 M278.567 65.962 C 278.419 66.021,278.150 66.357,277.968 66.708 C 277.165 68.261,279.095 69.707,280.327 68.475 C 281.571 67.231,280.217 65.298,278.567 65.962 M261.982 69.365 C 261.265 70.267,260.574 71.172,260.447 71.376 C 260.238 71.710,259.954 71.733,257.645 71.610 C 254.203 71.426,254.162 71.486,255.550 74.697 L 256.534 76.973 254.722 80.065 C 252.902 83.171,252.695 83.721,253.164 84.190 C 253.619 84.645,254.209 84.465,256.849 83.069 C 258.279 82.312,259.490 81.693,259.541 81.693 C 259.591 81.693,260.380 82.602,261.293 83.712 C 264.035 87.045,264.504 86.828,264.697 82.136 L 264.829 78.904 267.335 77.012 C 270.835 74.369,270.806 73.942,267.086 73.296 L 264.868 72.910 264.705 70.582 C 264.541 68.232,264.338 67.725,263.560 67.725 C 263.409 67.725,262.699 68.463,261.982 69.365 M137.493 68.324 C 136.674 69.229,137.330 70.688,138.557 70.688 C 139.159 70.688,139.894 69.910,139.894 69.272 C 139.894 68.149,138.242 67.496,137.493 68.324 M262.857 72.877 C 262.857 74.260,263.182 74.611,264.656 74.825 C 266.603 75.109,266.613 75.147,265.035 76.303 C 262.785 77.952,262.857 77.831,262.857 79.988 C 262.857 82.312,262.722 82.414,261.557 80.969 C 260.162 79.237,259.941 79.189,258.056 80.206 C 257.187 80.675,256.442 81.058,256.401 81.058 C 256.361 81.058,256.858 80.146,257.508 79.031 L 258.688 77.005 258.020 75.381 C 257.652 74.487,257.352 73.709,257.353 73.651 C 257.354 73.593,258.199 73.578,259.232 73.618 L 261.109 73.691 261.807 72.718 C 262.703 71.472,262.857 71.495,262.857 72.877 M365.148 76.032 C 364.146 77.574,363.250 78.922,363.156 79.026 C 363.062 79.131,361.680 79.290,360.086 79.381 C 356.318 79.596,356.322 79.587,358.853 82.131 L 360.867 84.155 359.694 87.814 C 358.154 92.615,358.216 92.710,361.279 90.235 C 362.380 89.345,363.396 88.527,363.537 88.416 C 363.716 88.276,364.647 88.809,366.606 90.174 C 369.571 92.239,370.374 92.614,370.365 91.929 C 370.362 91.712,370.084 89.789,369.747 87.655 L 369.134 83.776 370.815 81.439 C 372.766 78.727,372.757 78.625,370.556 78.467 C 368.794 78.341,368.898 78.462,368.269 75.823 C 367.468 72.460,367.469 72.460,365.148 76.032 M367.609 77.173 C 368.128 79.314,368.188 79.365,370.185 79.365 C 371.224 79.365,371.251 79.263,369.630 81.529 C 368.052 83.734,368.093 83.451,368.756 87.619 C 369.024 89.307,369.218 90.721,369.186 90.762 C 369.155 90.802,368.008 90.054,366.638 89.098 C 365.268 88.143,364.025 87.314,363.876 87.257 C 363.727 87.200,362.822 87.778,361.864 88.541 C 360.906 89.304,360.096 89.902,360.064 89.870 C 360.031 89.837,360.429 88.485,360.948 86.863 L 361.890 83.915 360.187 82.200 L 358.484 80.486 359.483 80.349 C 360.033 80.273,361.160 80.211,361.987 80.209 L 363.492 80.207 365.185 77.591 C 366.116 76.153,366.937 75.035,367.009 75.107 C 367.081 75.179,367.351 76.109,367.609 77.173 M190.280 75.902 C 189.698 76.641,189.726 77.364,190.361 77.999 C 191.393 79.031,193.016 78.338,193.016 76.865 C 193.016 75.412,191.175 74.764,190.280 75.902 M73.081 82.159 C 71.778 82.496,71.016 84.263,71.622 85.540 C 72.345 87.063,74.166 87.448,75.425 86.343 C 77.492 84.527,75.774 81.461,73.081 82.159 M341.814 84.579 C 341.263 85.280,341.258 85.808,341.799 86.349 C 342.684 87.235,344.180 86.616,344.180 85.364 C 344.180 84.128,342.585 83.599,341.814 84.579 M141.106 85.450 C 139.836 86.853,140.560 88.677,142.385 88.677 C 143.944 88.677,144.717 86.664,143.567 85.598 C 142.884 84.966,141.613 84.889,141.106 85.450 M34.324 86.282 C 32.227 87.315,31.716 90.270,33.351 91.904 C 35.772 94.326,39.697 92.406,39.312 88.989 C 39.055 86.707,36.392 85.262,34.324 86.282 M311.151 89.375 C 310.354 90.224,310.325 91.098,311.070 91.843 C 312.359 93.132,314.286 92.339,314.286 90.519 C 314.286 89.137,312.118 88.346,311.151 89.375 M211.027 92.098 C 208.899 93.562,209.068 96.475,211.344 97.577 C 213.488 98.614,215.697 97.144,215.697 94.680 C 215.697 92.376,212.883 90.820,211.027 92.098 M143.106 94.035 C 141.694 95.537,143.843 97.657,145.301 96.200 C 146.008 95.493,145.991 94.557,145.262 93.984 C 144.527 93.405,143.678 93.425,143.106 94.035 M243.069 93.780 C 241.028 94.954,241.815 97.778,244.182 97.778 C 245.154 97.778,246.138 96.601,246.138 95.439 C 246.138 94.299,244.091 93.192,243.069 93.780 M381.746 94.197 C 380.050 95.185,380.819 97.778,382.808 97.778 C 383.716 97.778,384.159 97.430,384.545 96.416 C 385.132 94.871,383.208 93.346,381.746 94.197 M178.728 97.970 C 166.560 102.361,157.863 121.531,161.829 135.217 C 164.871 145.713,174.988 153.873,187.070 155.575 C 189.840 155.965,196.491 155.732,197.051 155.225 C 198.024 154.345,197.546 153.908,194.392 152.797 C 191.457 151.764,186.829 149.428,184.017 147.561 C 168.818 137.468,167.375 122.961,179.559 102.751 C 182.565 97.765,182.372 96.654,178.728 97.970 M296.760 99.676 C 294.646 101.002,295.355 104.213,297.823 104.491 C 299.571 104.688,300.741 103.611,300.741 101.806 C 300.741 99.883,298.414 98.637,296.760 99.676 M178.836 100.200 C 178.836 100.253,178.209 101.324,177.443 102.581 C 163.865 124.861,167.633 141.864,188.460 152.309 L 191.640 153.903 189.418 153.792 C 177.844 153.212,167.670 145.933,164.075 135.661 C 159.943 123.855,166.454 106.620,177.244 100.802 C 178.478 100.138,178.836 100.002,178.836 100.200 M108.244 101.462 C 106.339 102.291,106.470 104.950,108.448 105.603 C 111.144 106.493,112.549 102.555,109.926 101.459 C 109.080 101.106,109.061 101.106,108.244 101.462 M159.259 101.671 C 158.680 101.922,158.303 102.419,158.031 103.292 C 157.524 104.921,160.075 106.150,161.418 104.923 C 163.018 103.459,161.257 100.806,159.259 101.671 M286.495 104.074 C 286.336 104.394,285.990 105.247,285.726 105.969 C 285.260 107.245,285.216 107.292,284.158 107.633 C 281.626 108.450,281.408 109.771,283.679 110.538 C 283.785 110.573,283.770 111.411,283.646 112.479 C 283.286 115.571,283.965 115.992,285.950 113.907 L 287.176 112.619 288.347 112.952 C 290.073 113.443,290.609 112.677,289.920 110.701 C 289.692 110.046,289.723 109.974,290.661 109.022 C 292.115 107.546,291.920 106.945,289.907 106.697 L 288.800 106.561 288.558 105.350 C 288.174 103.435,287.131 102.790,286.495 104.074 M287.702 108.388 C 288.196 108.613,288.208 108.656,287.904 109.120 C 287.693 109.443,287.629 109.830,287.721 110.245 C 287.856 110.862,287.844 110.874,287.239 110.700 C 286.893 110.601,286.488 110.604,286.325 110.707 C 285.867 110.997,285.745 110.935,285.865 110.475 C 285.926 110.242,285.846 109.893,285.686 109.700 C 285.449 109.413,285.447 109.332,285.676 109.255 C 285.829 109.204,286.210 108.937,286.522 108.662 C 287.200 108.065,287.063 108.097,287.702 108.388 M43.673 111.744 C 42.511 112.213,42.141 114.049,43.038 114.892 C 44.319 116.095,46.349 115.280,46.349 113.562 C 46.349 112.267,44.869 111.262,43.673 111.744 M320.317 111.789 C 318.861 112.627,319.149 114.523,320.780 114.838 C 322.156 115.104,323.122 113.175,322.116 112.169 C 321.884 111.937,321.606 111.746,321.499 111.746 C 321.392 111.746,321.178 111.701,321.023 111.646 C 320.868 111.591,320.550 111.655,320.317 111.789 M309.597 112.136 C 308.655 112.610,308.190 113.788,308.577 114.722 C 309.174 116.163,310.985 116.501,312.003 115.362 C 313.533 113.650,311.638 111.109,309.597 112.136 M360.237 113.268 C 358.709 114.830,359.765 117.249,361.974 117.249 C 362.881 117.249,363.897 116.336,364.095 115.343 C 364.533 113.155,361.790 111.679,360.237 113.268 M269.764 114.724 C 268.697 115.563,269.244 117.302,270.574 117.302 C 272.209 117.302,272.593 115.046,271.050 114.508 C 270.266 114.234,270.420 114.208,269.764 114.724 M77.966 118.514 C 76.707 119.023,76.204 120.903,77.040 121.967 C 78.226 123.474,80.550 122.914,80.926 121.030 C 81.256 119.380,79.506 117.892,77.966 118.514 M224.166 119.000 C 224.043 119.149,223.600 120.215,223.182 121.369 C 222.271 123.886,222.723 123.466,220.091 124.246 C 216.640 125.270,216.614 125.332,218.519 127.995 C 220.027 130.104,220.067 130.280,219.702 133.212 C 219.570 134.277,219.605 134.525,219.932 134.852 C 220.490 135.411,220.646 135.360,222.370 134.063 L 223.931 132.888 225.785 134.063 C 228.785 135.965,228.994 135.750,228.454 131.315 L 228.085 128.284 229.281 126.439 C 230.983 123.811,230.881 123.386,228.547 123.386 L 227.125 123.386 226.448 121.323 C 225.648 118.883,224.898 118.119,224.166 119.000 M371.198 119.834 C 369.915 120.299,369.551 121.874,370.505 122.828 C 371.684 124.007,373.560 123.271,373.607 121.610 C 373.644 120.313,372.401 119.396,371.198 119.834 M119.581 121.395 L 118.685 122.367 117.330 122.112 C 115.332 121.735,115.054 122.097,115.582 124.385 C 115.819 125.410,115.814 125.425,114.841 126.943 C 113.238 129.444,113.769 130.161,116.537 129.230 L 118.164 128.683 119.179 129.633 C 120.838 131.185,121.356 130.919,121.734 128.322 L 121.979 126.644 123.053 126.013 C 124.610 125.097,124.659 124.396,123.210 123.750 C 122.170 123.286,122.155 123.266,122.010 122.116 C 121.754 120.080,121.000 119.856,119.581 121.395 M194.791 121.261 C 193.411 121.833,193.023 123.638,194.058 124.672 C 195.620 126.234,198.262 124.542,197.479 122.482 C 197.117 121.530,195.697 120.886,194.791 121.261 M259.031 121.677 C 257.729 122.980,258.624 124.600,260.574 124.469 C 262.093 124.367,262.205 121.812,260.714 121.292 C 259.783 120.968,259.728 120.980,259.031 121.677 M225.158 123.802 C 225.455 124.795,226.078 125.291,227.027 125.291 L 227.716 125.291 226.857 126.614 C 226.116 127.757,226.016 128.046,226.126 128.744 C 226.670 132.208,226.611 132.376,225.185 131.429 C 223.982 130.629,223.648 130.634,222.591 131.472 L 221.734 132.150 221.884 130.826 L 222.034 129.502 220.938 128.022 C 219.664 126.305,219.617 126.454,221.614 125.893 C 223.742 125.294,223.831 125.231,224.232 124.023 C 224.657 122.743,224.829 122.703,225.158 123.802 M120.714 124.696 C 120.858 124.791,120.812 124.978,120.584 125.231 C 120.390 125.445,120.167 126.022,120.089 126.513 C 119.927 127.526,119.808 127.590,119.242 126.965 C 118.919 126.608,118.687 126.548,118.038 126.651 L 117.234 126.780 117.572 126.126 C 117.793 125.699,117.861 125.248,117.769 124.830 L 117.629 124.188 118.444 124.326 C 119.009 124.421,119.389 124.368,119.683 124.153 C 120.059 123.877,120.127 123.882,120.299 124.196 C 120.406 124.391,120.593 124.616,120.714 124.696 M89.146 125.398 C 87.108 126.285,87.817 129.312,90.063 129.312 C 91.845 129.312,92.763 127.107,91.506 125.849 C 91.199 125.542,90.825 125.291,90.676 125.291 C 90.527 125.291,90.278 125.247,90.123 125.193 C 89.968 125.139,89.528 125.231,89.146 125.398 M301.445 126.089 C 300.800 126.193,299.969 127.084,299.819 127.834 C 299.337 130.246,302.765 131.369,303.891 129.167 C 304.695 127.593,303.267 125.796,301.445 126.089 M138.078 131.845 C 136.371 132.536,135.709 135.509,136.960 136.866 C 139.026 139.107,142.648 137.705,142.645 134.665 C 142.643 132.531,140.165 131.001,138.078 131.845 M28.126 132.793 C 25.949 134.018,26.735 137.354,29.200 137.354 C 30.783 137.354,31.957 135.707,31.454 134.192 C 31.016 132.874,29.280 132.144,28.126 132.793 M277.193 137.619 C 276.679 138.009,276.381 138.965,276.597 139.533 C 277.205 141.132,279.532 140.979,279.849 139.319 C 280.122 137.889,278.340 136.748,277.193 137.619 M324.857 140.914 C 323.165 142.606,323.793 145.171,326.037 145.735 C 328.609 146.380,330.637 142.902,328.728 141.121 C 327.306 139.795,326.043 139.728,324.857 140.914 M152.404 140.824 C 151.238 141.471,151.025 142.803,151.941 143.720 C 153.093 144.871,154.719 144.344,155.045 142.713 C 155.327 141.303,153.674 140.121,152.404 140.824 M70.784 147.015 C 70.109 147.743,70.109 148.647,70.784 149.322 C 71.512 150.050,72.623 150.033,73.212 149.284 C 74.556 147.575,72.256 145.426,70.784 147.015 M354.798 151.208 C 353.323 153.813,353.558 153.666,351.429 153.316 C 347.221 152.625,346.739 153.069,348.717 155.812 C 349.412 156.777,350.049 157.682,350.131 157.824 C 350.221 157.978,349.677 158.888,348.792 160.065 C 346.240 163.460,346.894 164.232,350.703 162.320 L 352.827 161.254 354.562 162.846 C 356.293 164.435,356.956 164.735,357.442 164.149 C 357.622 163.932,358.288 159.581,358.305 158.509 C 358.306 158.446,359.105 157.803,360.081 157.080 C 362.782 155.080,362.706 154.339,359.771 154.059 C 358.791 153.966,357.974 153.883,357.956 153.876 C 357.938 153.868,357.856 152.934,357.773 151.799 C 357.507 148.133,356.636 147.960,354.798 151.208 M257.455 150.772 C 255.636 151.564,256.093 154.157,258.098 154.426 C 260.250 154.714,260.956 151.622,258.932 150.776 C 258.091 150.425,258.251 150.425,257.455 150.772 M356.038 154.294 C 356.182 155.367,356.508 155.767,357.239 155.767 C 358.145 155.767,358.153 155.995,357.272 156.748 C 356.512 157.400,356.442 157.553,356.313 158.884 C 356.236 159.672,356.121 160.582,356.058 160.905 L 355.943 161.493 354.658 160.304 C 353.345 159.088,353.017 158.989,351.893 159.468 C 351.579 159.602,351.606 159.490,352.046 158.842 C 352.642 157.963,352.590 157.734,351.445 156.202 C 350.713 155.224,350.741 155.173,351.905 155.365 C 354.175 155.739,354.436 155.667,355.079 154.500 C 355.785 153.220,355.891 153.198,356.038 154.294 M104.762 155.687 C 102.892 156.858,102.812 159.545,104.613 160.643 C 106.828 161.994,109.517 160.061,108.980 157.505 C 108.617 155.780,106.245 154.758,104.762 155.687 M168.985 156.539 C 167.968 157.635,168.687 159.365,170.159 159.365 C 170.571 159.365,171.005 159.173,171.332 158.846 C 172.382 157.796,171.638 155.979,170.158 155.979 C 169.722 155.979,169.330 156.166,168.985 156.539 M208.759 157.668 C 206.322 158.653,207.657 162.322,210.139 161.457 C 211.816 160.872,211.734 157.672,210.041 157.672 C 209.892 157.672,209.643 157.630,209.488 157.579 C 209.333 157.528,209.005 157.568,208.759 157.668 M248.360 158.991 C 247.007 159.750,247.072 161.599,248.469 162.086 C 250.133 162.666,251.484 160.778,250.317 159.504 C 249.745 158.879,248.937 158.667,248.360 158.991 M42.236 168.226 L 41.505 169.679 39.748 169.832 C 37.260 170.049,37.077 170.552,38.720 172.668 L 39.763 174.012 38.890 175.773 C 37.541 178.492,38.398 179.010,41.161 177.145 L 42.727 176.088 43.994 176.843 C 46.045 178.065,46.524 177.449,45.819 174.497 L 45.516 173.228 46.673 172.057 C 48.353 170.359,48.186 169.785,45.950 169.582 L 44.688 169.468 44.543 168.385 C 44.246 166.174,43.302 166.109,42.236 168.226 M130.210 167.195 C 129.088 167.879,128.641 168.791,128.732 170.209 C 128.997 174.345,135.025 173.973,135.026 169.820 C 135.027 167.534,132.189 165.988,130.210 167.195 M227.462 167.144 C 225.354 168.451,226.272 171.644,228.766 171.678 C 231.248 171.712,232.200 168.392,230.070 167.134 C 229.295 166.676,228.209 166.680,227.462 167.144 M274.656 168.577 C 273.686 169.546,273.755 170.769,274.828 171.612 C 276.402 172.851,278.518 171.224,277.845 169.292 C 277.399 168.012,275.619 167.613,274.656 168.577 M44.111 171.426 C 44.492 171.428,44.488 171.461,44.036 171.942 C 43.646 172.357,43.568 172.642,43.630 173.424 C 43.704 174.360,43.565 174.641,43.267 174.159 C 43.185 174.026,42.860 173.978,42.514 174.047 C 42.097 174.131,41.905 174.084,41.905 173.899 C 41.905 173.750,41.615 173.234,41.260 172.752 L 40.615 171.875 41.419 171.746 C 41.861 171.675,42.365 171.530,42.540 171.424 C 42.714 171.318,43.048 171.274,43.280 171.327 C 43.513 171.380,43.887 171.424,44.111 171.426 M301.604 172.291 C 301.081 172.814,300.952 173.120,300.952 173.839 C 300.952 175.895,303.331 176.774,304.650 175.206 C 306.404 173.123,303.526 170.369,301.604 172.291 M182.434 174.027 C 180.621 174.933,181.215 177.566,183.232 177.566 C 185.185 177.566,185.629 174.821,183.799 174.056 C 182.947 173.700,183.083 173.703,182.434 174.027 M88.318 176.402 C 87.362 177.072,87.532 178.535,88.623 179.033 C 89.367 179.372,89.701 179.313,90.274 178.740 C 91.631 177.383,89.889 175.302,88.318 176.402 M253.582 177.421 C 252.911 178.135,252.957 179.311,253.679 179.879 C 254.619 180.618,255.697 180.387,256.262 179.326 C 257.149 177.661,254.875 176.045,253.582 177.421 M139.683 178.540 L 138.307 179.489 135.661 179.464 C 134.206 179.450,132.895 179.446,132.747 179.455 C 131.986 179.501,132.044 180.396,132.975 182.992 L 133.897 185.561 131.715 188.177 C 128.285 192.289,128.639 192.844,133.717 191.310 L 136.561 190.452 138.412 192.263 C 141.177 194.969,141.546 194.804,141.634 190.822 L 141.693 188.127 144.833 186.727 C 149.619 184.593,149.661 184.167,145.238 182.638 L 142.646 181.742 142.646 179.908 C 142.646 177.199,142.035 176.917,139.683 178.540 M210.269 178.707 C 209.125 179.851,209.440 181.520,210.918 182.138 C 212.979 182.999,214.718 180.400,213.138 178.820 C 212.322 178.004,211.023 177.952,210.269 178.707 M318.791 180.582 C 317.357 182.149,318.618 184.185,320.684 183.639 C 321.316 183.472,321.905 182.552,321.905 181.732 C 321.905 180.364,319.727 179.560,318.791 180.582 M140.741 181.582 C 140.741 183.053,140.829 183.139,143.122 183.926 C 144.937 184.550,144.948 184.522,142.417 185.616 C 139.819 186.738,139.683 186.910,139.683 189.047 L 139.683 190.699 138.304 189.529 C 136.712 188.179,136.956 188.235,135.134 188.798 C 133.304 189.363,133.282 189.302,134.691 187.595 C 136.072 185.920,136.091 185.769,135.238 183.352 C 134.889 182.363,134.603 181.514,134.603 181.465 C 134.603 181.416,135.582 181.376,136.778 181.376 C 138.746 181.376,139.024 181.326,139.689 180.857 C 140.709 180.137,140.741 180.159,140.741 181.582 M162.428 186.935 C 162.000 187.304,161.834 187.641,161.834 188.148 C 161.834 189.475,163.530 190.139,164.436 189.166 C 165.752 187.754,163.887 185.680,162.428 186.935 M71.267 191.587 C 70.641 192.062,70.420 193.005,70.799 193.583 C 71.730 195.004,73.651 194.423,73.651 192.721 C 73.651 191.644,72.139 190.925,71.267 191.587 M267.494 197.482 L 266.561 198.985 264.481 198.889 C 261.539 198.753,261.435 198.911,262.329 202.135 L 262.715 203.528 260.987 205.916 C 259.094 208.533,259.023 208.724,259.765 209.211 C 260.242 209.523,260.424 209.486,262.950 208.556 C 264.423 208.013,265.680 207.620,265.742 207.682 C 265.804 207.744,266.395 208.684,267.056 209.771 C 269.124 213.176,269.841 212.733,269.841 208.051 L 269.841 204.965 271.873 204.033 C 275.024 202.588,275.062 202.006,272.081 200.853 C 270.088 200.083,270.060 200.043,270.056 197.952 C 270.050 195.440,268.894 195.228,267.494 197.482 M98.942 198.395 C 97.962 198.832,97.108 199.878,96.827 200.985 C 95.659 205.585,101.844 207.711,103.996 203.450 C 105.480 200.512,101.999 197.031,98.942 198.395 M194.572 198.320 C 193.704 198.580,192.651 199.793,192.474 200.736 C 191.794 204.357,196.821 206.182,198.387 202.882 C 199.629 200.264,197.316 197.498,194.572 198.320 M268.797 201.523 C 268.964 201.619,269.469 201.846,269.919 202.026 L 270.738 202.355 269.460 202.960 C 267.928 203.684,267.725 204.011,267.724 205.753 L 267.723 207.090 267.335 206.455 C 266.497 205.084,266.351 205.076,263.407 206.258 C 263.122 206.372,263.272 206.040,263.927 205.112 L 264.849 203.804 264.488 202.449 C 264.289 201.704,264.127 201.025,264.127 200.940 C 264.127 200.855,264.802 200.842,265.627 200.911 C 266.983 201.025,267.171 200.992,267.585 200.571 L 268.042 200.106 268.268 200.727 C 268.392 201.068,268.630 201.426,268.797 201.523 M229.113 202.318 C 226.734 203.886,227.174 207.162,229.880 208.028 C 231.764 208.631,233.862 207.003,233.862 204.939 C 233.862 202.763,230.910 201.134,229.113 202.318 M162.150 202.879 C 160.741 203.866,161.413 205.926,163.145 205.926 C 164.762 205.926,165.025 203.334,163.467 202.742 C 162.769 202.476,162.717 202.482,162.150 202.879 M148.288 206.479 C 146.836 207.931,147.722 210.143,149.759 210.154 C 151.278 210.162,152.322 208.587,151.736 207.172 C 151.205 205.890,149.266 205.500,148.288 206.479 M210.643 212.686 C 209.427 213.437,209.364 215.270,210.528 216.032 C 211.736 216.823,213.301 216.180,213.661 214.744 C 214.054 213.176,212.055 211.813,210.643 212.686 M135.873 215.089 C 134.561 215.752,134.590 217.392,135.925 218.054 C 137.367 218.769,138.833 217.300,138.097 215.877 C 137.870 215.438,136.802 214.763,136.423 214.818 C 136.412 214.820,136.164 214.941,135.873 215.089 " stroke="none" fill="#f8f8f8" fill-rule="evenodd"></path><path id="path1" d="M0.000 110.899 L 0.000 221.799 200.000 221.799 L 400.000 221.799 400.000 110.899 L 400.000 0.000 200.000 0.000 L 0.000 0.000 0.000 110.899 M203.564 15.577 C 204.298 16.091,204.497 16.820,204.137 17.682 C 203.390 19.469,200.847 18.964,200.847 17.027 C 200.847 15.582,202.393 14.757,203.564 15.577 M172.215 25.262 C 172.431 25.537,172.786 26.156,173.003 26.638 L 173.398 27.513 174.861 27.513 C 177.523 27.513,177.742 28.067,175.924 30.206 L 174.706 31.640 175.113 33.655 C 175.797 37.040,175.384 37.463,172.859 35.963 L 171.408 35.101 169.933 36.492 C 167.572 38.719,166.809 38.418,167.178 35.407 C 167.539 32.466,167.566 32.570,166.250 31.883 C 164.116 30.767,164.421 29.946,167.286 29.100 L 169.301 28.505 169.866 27.004 C 170.177 26.178,170.516 25.336,170.620 25.132 C 170.889 24.604,171.752 24.674,172.215 25.262 M171.085 29.148 C 170.789 29.902,170.583 30.096,169.759 30.399 C 168.739 30.774,168.200 31.111,168.620 31.111 C 169.281 31.111,169.541 31.777,169.393 33.090 L 169.246 34.388 170.027 33.702 C 170.945 32.896,171.429 32.851,172.441 33.476 L 173.186 33.937 173.058 33.423 C 172.611 31.628,172.634 31.130,173.201 30.387 C 173.894 29.478,173.895 29.489,173.088 29.489 C 172.602 29.489,172.284 29.319,171.927 28.872 L 171.435 28.256 171.085 29.148 M211.629 31.462 C 212.642 32.750,210.951 34.221,209.728 33.115 C 209.194 32.632,209.197 31.861,209.735 31.323 C 210.328 30.730,211.098 30.787,211.629 31.462 M147.259 33.233 C 148.551 34.437,147.383 36.774,145.739 36.277 C 144.405 35.874,143.931 34.438,144.777 33.362 C 145.335 32.653,146.568 32.589,147.259 33.233 M127.137 34.068 C 129.055 35.237,127.425 38.153,125.395 37.185 C 124.085 36.560,123.900 35.234,124.973 34.162 C 125.592 33.543,126.230 33.515,127.137 34.068 M244.956 36.208 C 248.866 38.888,244.889 44.571,240.922 41.971 C 238.880 40.633,239.230 37.067,241.519 35.899 C 242.469 35.416,244.000 35.553,244.956 36.208 M284.225 36.292 C 285.699 37.055,286.234 38.595,285.529 40.051 C 283.953 43.306,278.947 41.324,280.226 37.950 C 280.867 36.257,282.693 35.500,284.225 36.292 M97.790 39.801 C 98.747 40.757,97.739 42.539,96.427 42.210 C 95.286 41.923,94.933 40.547,95.783 39.697 C 96.249 39.231,97.273 39.283,97.790 39.801 M123.979 45.863 C 125.417 46.936,125.789 48.564,124.918 49.971 C 123.108 52.894,118.506 50.975,119.403 47.672 C 119.968 45.593,122.354 44.650,123.979 45.863 M231.400 51.987 C 232.030 52.617,232.093 53.093,231.656 53.938 C 230.840 55.515,228.360 54.974,228.360 53.219 C 228.360 51.555,230.216 50.802,231.400 51.987 M211.604 54.788 C 211.758 54.886,212.097 55.813,212.357 56.848 C 212.738 58.369,212.908 58.738,213.240 58.771 C 217.338 59.183,217.450 59.545,214.300 62.198 L 212.499 63.715 212.440 66.594 C 212.355 70.764,212.109 70.897,209.534 68.171 L 207.682 66.210 205.872 66.774 C 202.965 67.681,202.589 67.186,204.021 64.339 C 205.072 62.249,205.084 62.457,203.783 60.119 C 202.120 57.131,202.397 56.831,206.243 57.463 C 207.291 57.635,208.207 57.777,208.279 57.777 C 208.351 57.777,208.672 57.373,208.994 56.878 C 210.451 54.635,210.854 54.312,211.604 54.788 M321.439 57.397 C 321.579 57.537,321.694 57.894,321.696 58.190 C 321.701 59.155,321.946 59.685,322.444 59.810 C 323.814 60.154,323.892 61.196,322.613 62.056 C 321.797 62.604,321.720 62.741,321.489 64.069 C 321.097 66.320,320.646 66.547,319.263 65.189 L 318.404 64.345 316.971 64.811 C 314.660 65.563,314.135 64.810,315.454 62.638 C 316.210 61.394,316.223 61.336,315.981 60.328 C 315.565 58.594,316.044 58.168,317.919 58.603 C 318.643 58.771,318.749 58.729,319.496 57.963 C 320.309 57.131,320.978 56.936,321.439 57.397 M209.945 58.839 C 209.291 59.897,209.295 59.896,207.347 59.590 C 206.449 59.449,205.714 59.381,205.714 59.438 C 205.714 59.496,206.000 60.049,206.349 60.668 C 207.101 62.000,207.127 62.382,206.546 63.521 C 206.037 64.520,206.083 64.641,206.863 64.345 C 207.970 63.924,208.423 64.076,209.523 65.238 L 210.574 66.349 210.578 64.620 L 210.582 62.891 211.765 61.837 L 212.948 60.783 212.241 60.631 C 211.275 60.425,211.060 60.209,210.906 59.296 C 210.688 58.007,210.511 57.923,209.945 58.839 M165.032 58.742 C 165.589 59.132,165.653 60.009,165.173 60.694 C 164.754 61.292,163.750 61.316,163.175 60.741 C 161.950 59.517,163.602 57.740,165.032 58.742 M163.868 59.497 C 163.635 59.730,163.724 60.321,163.991 60.314 C 164.362 60.305,164.655 59.927,164.535 59.613 C 164.376 59.199,164.197 59.168,163.868 59.497 M295.191 60.647 C 296.155 61.322,295.584 63.069,294.399 63.069 C 293.773 63.069,292.910 62.381,292.910 61.883 C 292.910 60.608,294.165 59.928,295.191 60.647 M318.942 60.718 C 318.025 60.877,317.754 62.097,318.595 62.281 C 318.844 62.335,319.191 62.440,319.366 62.515 C 319.600 62.615,319.754 62.424,319.953 61.789 C 320.206 60.977,320.157 60.492,319.829 60.559 C 319.748 60.576,319.349 60.647,318.942 60.718 M99.956 61.005 C 100.179 61.172,100.481 62.091,100.774 63.492 C 101.030 64.714,101.256 65.740,101.276 65.771 C 101.297 65.803,102.201 65.910,103.286 66.010 C 106.333 66.291,106.483 66.899,104.050 69.098 L 102.544 70.459 103.047 72.385 C 103.825 75.370,103.578 75.662,100.901 74.921 C 98.700 74.311,98.724 74.301,96.756 76.526 C 93.987 79.656,93.413 79.290,93.998 74.769 C 94.205 73.164,94.379 71.785,94.383 71.702 C 94.388 71.620,93.725 71.164,92.910 70.688 C 90.648 69.367,90.882 68.752,94.077 67.613 C 95.308 67.174,96.400 66.657,96.503 66.464 C 96.607 66.270,97.071 65.103,97.534 63.870 C 98.779 60.554,99.001 60.292,99.956 61.005 M98.450 66.758 C 97.877 68.356,97.854 68.378,96.138 68.997 C 94.578 69.560,94.623 69.475,95.582 70.041 L 96.350 70.493 96.214 72.442 L 96.078 74.392 96.992 73.386 C 98.007 72.271,98.349 72.191,99.992 72.685 L 101.004 72.990 100.861 72.209 C 100.414 69.766,100.391 69.901,101.435 68.901 C 102.491 67.888,102.409 67.735,100.809 67.728 C 99.947 67.724,99.546 67.312,99.366 66.248 C 99.170 65.087,99.019 65.172,98.450 66.758 M348.121 65.842 C 349.602 66.359,349.603 68.401,348.122 68.965 C 346.433 69.606,345.149 67.517,346.439 66.227 C 347.135 65.530,347.190 65.518,348.121 65.842 M280.289 66.259 C 281.018 66.832,281.034 67.768,280.327 68.475 C 279.095 69.707,277.165 68.261,277.968 66.708 C 278.483 65.713,279.375 65.540,280.289 66.259 M264.188 67.989 C 264.462 68.194,264.580 68.785,264.705 70.582 L 264.868 72.910 267.086 73.296 C 270.806 73.942,270.835 74.369,267.335 77.012 L 264.829 78.904 264.697 82.136 C 264.504 86.828,264.035 87.045,261.293 83.712 C 260.380 82.602,259.591 81.693,259.541 81.693 C 259.490 81.693,258.279 82.312,256.849 83.069 C 254.209 84.465,253.619 84.645,253.164 84.190 C 252.695 83.721,252.902 83.171,254.722 80.065 L 256.534 76.973 255.550 74.697 C 254.162 71.486,254.203 71.426,257.645 71.610 C 259.954 71.733,260.238 71.710,260.447 71.376 C 261.101 70.329,263.321 67.725,263.560 67.725 C 263.711 67.725,263.994 67.844,264.188 67.989 M139.471 68.360 C 140.014 68.902,140.010 69.637,139.463 70.225 C 138.628 71.120,137.143 70.573,137.143 69.370 C 137.143 68.064,138.560 67.449,139.471 68.360 M261.807 72.718 L 261.109 73.691 259.232 73.618 C 258.199 73.578,257.354 73.593,257.353 73.651 C 257.352 73.709,257.652 74.487,258.020 75.381 L 258.688 77.005 257.508 79.031 C 256.858 80.146,256.361 81.058,256.401 81.058 C 256.442 81.058,257.187 80.675,258.056 80.206 C 259.941 79.189,260.162 79.237,261.557 80.969 C 262.722 82.414,262.857 82.312,262.857 79.988 C 262.857 77.831,262.785 77.952,265.035 76.303 C 266.613 75.147,266.603 75.109,264.656 74.825 C 263.182 74.611,262.857 74.260,262.857 72.877 C 262.857 71.495,262.703 71.472,261.807 72.718 M367.566 73.492 C 367.682 73.638,367.999 74.687,368.269 75.823 C 368.898 78.462,368.794 78.341,370.556 78.467 C 372.757 78.625,372.766 78.727,370.815 81.439 L 369.134 83.776 369.747 87.655 C 370.084 89.789,370.362 91.712,370.365 91.929 C 370.374 92.614,369.571 92.239,366.606 90.174 C 364.647 88.809,363.716 88.276,363.537 88.416 C 363.396 88.527,362.380 89.345,361.279 90.235 C 358.216 92.710,358.154 92.615,359.694 87.814 L 360.867 84.155 358.853 82.131 C 356.322 79.587,356.318 79.596,360.086 79.381 C 361.680 79.290,363.062 79.131,363.156 79.026 C 363.250 78.922,364.146 77.574,365.148 76.032 C 366.978 73.215,367.178 73.005,367.566 73.492 M365.185 77.591 L 363.492 80.207 361.987 80.209 C 361.160 80.211,360.033 80.273,359.483 80.349 L 358.484 80.486 360.187 82.200 L 361.890 83.915 360.948 86.863 C 360.429 88.485,360.031 89.837,360.064 89.870 C 360.096 89.902,360.906 89.304,361.864 88.541 C 362.822 87.778,363.727 87.200,363.876 87.257 C 364.025 87.314,365.268 88.143,366.638 89.098 C 368.008 90.054,369.155 90.802,369.186 90.762 C 369.218 90.721,369.024 89.307,368.756 87.619 C 368.093 83.451,368.052 83.734,369.630 81.529 C 371.251 79.263,371.224 79.365,370.185 79.365 C 368.188 79.365,368.128 79.314,367.609 77.173 C 367.351 76.109,367.081 75.179,367.009 75.107 C 366.937 75.035,366.116 76.153,365.185 77.591 M192.593 75.767 C 193.521 76.696,192.789 78.519,191.488 78.519 C 190.739 78.519,189.841 77.674,189.841 76.969 C 189.841 75.592,191.634 74.808,192.593 75.767 M75.302 82.498 C 76.627 83.358,76.687 85.235,75.425 86.343 C 74.166 87.448,72.345 87.063,71.622 85.540 C 70.551 83.284,73.173 81.116,75.302 82.498 M343.707 84.404 C 344.652 85.169,344.054 86.772,342.824 86.772 C 342.493 86.772,342.032 86.582,341.799 86.349 C 340.598 85.148,342.380 83.330,343.707 84.404 M143.567 85.598 C 144.717 86.664,143.944 88.677,142.385 88.677 C 140.560 88.677,139.836 86.853,141.106 85.450 C 141.613 84.889,142.884 84.966,143.567 85.598 M37.392 86.367 C 41.137 88.181,39.027 93.895,34.987 92.878 C 33.873 92.597,32.648 91.409,32.464 90.431 C 31.873 87.277,34.609 85.020,37.392 86.367 M313.728 89.447 C 314.527 90.246,314.406 91.487,313.457 92.215 C 312.355 93.062,310.294 91.864,310.561 90.531 C 310.884 88.915,312.607 88.326,313.728 89.447 M214.341 92.206 C 217.433 94.514,214.792 99.246,211.344 97.577 C 209.068 96.475,208.899 93.562,211.027 92.098 C 211.898 91.498,213.462 91.549,214.341 92.206 M145.262 93.984 C 145.991 94.557,146.008 95.493,145.301 96.200 C 143.843 97.657,141.694 95.537,143.106 94.035 C 143.678 93.425,144.527 93.405,145.262 93.984 M245.556 94.388 C 246.173 95.073,246.260 95.523,245.939 96.368 C 245.089 98.602,241.893 98.011,241.909 95.622 C 241.922 93.708,244.237 92.925,245.556 94.388 M383.796 94.296 C 385.348 95.313,384.649 97.778,382.808 97.778 C 382.173 97.778,381.833 97.633,381.359 97.159 C 379.755 95.555,381.889 93.047,383.796 94.296 M181.650 98.010 C 181.990 98.552,181.716 99.173,179.559 102.751 C 167.375 122.961,168.818 137.468,184.017 147.561 C 186.829 149.428,191.457 151.764,194.392 152.797 C 197.546 153.908,198.024 154.345,197.051 155.225 C 196.011 156.166,187.628 155.916,183.277 154.814 C 162.087 149.447,154.368 127.171,167.051 107.983 C 171.366 101.454,180.079 95.502,181.650 98.010 M300.046 100.188 C 300.839 101.053,300.978 102.207,300.420 103.287 C 299.369 105.319,295.899 104.699,295.528 102.413 C 295.103 99.792,298.258 98.237,300.046 100.188 M177.244 100.802 C 166.454 106.620,159.943 123.855,164.075 135.661 C 167.670 145.933,177.844 153.212,189.418 153.792 L 191.640 153.903 188.460 152.309 C 167.633 141.864,163.865 124.861,177.443 102.581 C 179.227 99.654,179.235 99.729,177.244 100.802 M109.926 101.459 C 112.549 102.555,111.144 106.493,108.448 105.603 C 106.470 104.950,106.339 102.291,108.244 101.462 C 109.061 101.106,109.080 101.106,109.926 101.459 M161.226 101.938 C 162.595 102.801,162.142 104.988,160.492 105.488 C 159.367 105.828,157.704 104.344,158.031 103.292 C 158.572 101.557,159.799 101.037,161.226 101.938 M288.047 103.815 C 288.194 103.993,288.424 104.683,288.558 105.350 L 288.800 106.561 289.907 106.697 C 291.920 106.945,292.115 107.546,290.661 109.022 C 289.723 109.974,289.692 110.046,289.920 110.701 C 290.609 112.677,290.073 113.443,288.347 112.952 L 287.176 112.619 285.950 113.907 C 283.965 115.992,283.286 115.571,283.646 112.479 C 283.770 111.411,283.785 110.573,283.679 110.538 C 281.408 109.771,281.626 108.450,284.158 107.633 C 285.216 107.292,285.260 107.245,285.726 105.969 C 286.646 103.452,287.267 102.876,288.047 103.815 M286.522 108.662 C 286.210 108.937,285.829 109.204,285.676 109.255 C 285.447 109.332,285.449 109.413,285.686 109.700 C 285.846 109.893,285.926 110.242,285.865 110.475 C 285.745 110.935,285.867 110.997,286.325 110.707 C 286.488 110.604,286.893 110.601,287.239 110.700 C 287.844 110.874,287.856 110.862,287.721 110.245 C 287.629 109.830,287.693 109.443,287.904 109.120 C 288.208 108.656,288.196 108.613,287.702 108.388 C 287.063 108.097,287.200 108.065,286.522 108.662 M44.939 111.733 C 47.067 112.542,46.508 115.843,44.304 115.485 C 42.296 115.159,41.845 112.482,43.673 111.744 C 44.274 111.502,44.330 111.501,44.939 111.733 M321.499 111.746 C 322.497 111.746,322.838 113.583,321.997 114.425 C 320.715 115.707,318.527 113.798,319.636 112.366 C 320.007 111.887,320.695 111.530,321.023 111.646 C 321.178 111.701,321.392 111.746,321.499 111.746 M312.116 112.706 C 313.196 113.941,312.259 116.021,310.623 116.021 C 309.015 116.021,308.059 114.722,308.602 113.277 C 309.180 111.741,311.012 111.443,312.116 112.706 M362.990 112.924 C 364.323 113.613,364.498 115.469,363.341 116.626 C 362.097 117.871,359.742 117.072,359.560 115.344 C 359.339 113.250,361.150 111.973,362.990 112.924 M271.050 114.508 C 272.593 115.046,272.209 117.302,270.574 117.302 C 269.244 117.302,268.697 115.563,269.764 114.724 C 270.420 114.208,270.266 114.234,271.050 114.508 M79.730 118.661 C 82.103 119.787,80.663 123.564,78.174 122.742 C 76.692 122.253,76.123 120.469,77.066 119.270 C 77.835 118.292,78.589 118.120,79.730 118.661 M225.438 118.995 C 225.622 119.140,226.076 120.188,226.448 121.323 L 227.125 123.386 228.547 123.386 C 230.881 123.386,230.983 123.811,229.281 126.439 L 228.085 128.284 228.454 131.315 C 228.994 135.750,228.785 135.965,225.785 134.063 L 223.931 132.888 222.370 134.063 C 220.646 135.360,220.490 135.411,219.932 134.852 C 219.605 134.525,219.570 134.277,219.702 133.212 C 220.067 130.280,220.027 130.104,218.519 127.995 C 216.614 125.332,216.640 125.270,220.091 124.246 C 222.723 123.466,222.271 123.886,223.182 121.369 C 224.170 118.641,224.523 118.269,225.438 118.995 M373.147 120.344 C 374.214 121.480,373.398 123.386,371.844 123.386 C 370.311 123.386,369.404 121.658,370.322 120.486 C 371.076 119.524,372.317 119.461,373.147 120.344 M121.647 120.688 C 121.766 120.833,121.930 121.476,122.010 122.116 C 122.155 123.266,122.170 123.286,123.210 123.750 C 124.659 124.396,124.610 125.097,123.053 126.013 L 121.979 126.644 121.734 128.322 C 121.356 130.919,120.838 131.185,119.179 129.633 L 118.164 128.683 116.537 129.230 C 113.769 130.161,113.238 129.444,114.841 126.943 C 115.814 125.425,115.819 125.410,115.582 124.385 C 115.054 122.097,115.332 121.735,117.330 122.112 L 118.685 122.367 119.581 121.395 C 120.489 120.411,121.215 120.162,121.647 120.688 M196.782 121.613 C 198.379 122.646,197.465 125.291,195.510 125.291 C 193.788 125.291,192.835 123.365,193.892 122.021 C 194.676 121.024,195.657 120.885,196.782 121.613 M260.714 121.292 C 262.205 121.812,262.093 124.367,260.574 124.469 C 258.624 124.600,257.729 122.980,259.031 121.677 C 259.728 120.980,259.783 120.968,260.714 121.292 M224.232 124.023 C 223.831 125.231,223.742 125.294,221.614 125.893 C 219.617 126.454,219.664 126.305,220.938 128.022 L 222.034 129.502 221.884 130.826 L 221.734 132.150 222.591 131.472 C 223.648 130.634,223.982 130.629,225.185 131.429 C 226.611 132.376,226.670 132.208,226.126 128.744 C 226.016 128.046,226.116 127.757,226.857 126.614 L 227.716 125.291 227.027 125.291 C 226.078 125.291,225.455 124.795,225.158 123.802 C 224.829 122.703,224.657 122.743,224.232 124.023 M119.683 124.153 C 119.389 124.368,119.009 124.421,118.444 124.326 L 117.629 124.188 117.769 124.830 C 117.861 125.248,117.793 125.699,117.572 126.126 L 117.234 126.780 118.038 126.651 C 118.687 126.548,118.919 126.608,119.242 126.965 C 119.808 127.590,119.927 127.526,120.089 126.513 C 120.167 126.022,120.390 125.445,120.584 125.231 C 120.812 124.978,120.858 124.791,120.714 124.696 C 120.593 124.616,120.406 124.391,120.299 124.196 C 120.127 123.882,120.059 123.877,119.683 124.153 M90.676 125.291 C 91.271 125.291,92.063 126.386,92.063 127.208 C 92.063 129.689,88.558 130.125,87.954 127.719 C 87.659 126.544,89.120 124.844,90.123 125.193 C 90.278 125.247,90.527 125.291,90.676 125.291 M303.651 126.886 C 304.168 127.478,304.268 128.429,303.891 129.167 C 302.765 131.369,299.337 130.246,299.819 127.834 C 300.180 126.033,302.420 125.479,303.651 126.886 M141.113 132.062 C 144.468 134.108,141.761 139.242,138.141 137.699 C 136.183 136.865,135.653 134.382,137.073 132.695 C 138.035 131.551,139.817 131.272,141.113 132.062 M30.683 133.083 C 32.427 134.376,31.393 137.354,29.200 137.354 C 27.933 137.354,26.823 136.285,26.839 135.081 C 26.869 132.942,28.999 131.835,30.683 133.083 M279.172 137.626 C 280.100 138.339,280.106 139.614,279.184 140.339 C 277.910 141.341,276.064 139.988,276.629 138.466 C 277.018 137.416,278.333 136.982,279.172 137.626 M327.686 140.343 C 329.661 141.358,330.069 143.251,328.658 144.857 C 326.798 146.976,323.216 145.041,323.906 142.291 C 324.302 140.713,326.351 139.657,327.686 140.343 M153.817 140.757 C 155.166 141.227,155.483 142.760,154.457 143.852 C 153.085 145.313,150.637 143.381,151.618 141.611 C 152.119 140.707,152.855 140.421,153.817 140.757 M73.091 146.974 C 73.777 147.610,73.824 148.506,73.212 149.284 C 72.623 150.033,71.512 150.050,70.784 149.322 C 69.241 147.779,71.490 145.490,73.091 146.974 M357.298 149.365 C 357.516 149.613,357.673 150.419,357.773 151.799 C 357.856 152.934,357.938 153.868,357.956 153.876 C 357.974 153.883,358.791 153.966,359.771 154.059 C 362.706 154.339,362.782 155.080,360.081 157.080 C 359.105 157.803,358.306 158.446,358.305 158.509 C 358.288 159.581,357.622 163.932,357.442 164.149 C 356.956 164.735,356.293 164.435,354.562 162.846 L 352.827 161.254 350.703 162.320 C 346.894 164.232,346.240 163.460,348.792 160.065 C 349.677 158.888,350.221 157.978,350.131 157.824 C 350.049 157.682,349.412 156.777,348.717 155.812 C 346.739 153.069,347.221 152.625,351.429 153.316 C 353.558 153.666,353.323 153.813,354.798 151.208 C 356.120 148.871,356.570 148.539,357.298 149.365 M258.932 150.776 C 260.956 151.622,260.250 154.714,258.098 154.426 C 256.093 154.157,255.636 151.564,257.455 150.772 C 258.251 150.425,258.091 150.425,258.932 150.776 M355.079 154.500 C 354.436 155.667,354.175 155.739,351.905 155.365 C 350.741 155.173,350.713 155.224,351.445 156.202 C 352.590 157.734,352.642 157.963,352.046 158.842 C 351.606 159.490,351.579 159.602,351.893 159.468 C 353.017 158.989,353.345 159.088,354.658 160.304 L 355.943 161.493 356.058 160.905 C 356.121 160.582,356.236 159.672,356.313 158.884 C 356.442 157.553,356.512 157.400,357.272 156.748 C 358.153 155.995,358.145 155.767,357.239 155.767 C 356.508 155.767,356.182 155.367,356.038 154.294 C 355.891 153.198,355.785 153.220,355.079 154.500 M107.361 155.632 C 110.126 156.803,109.285 161.060,106.289 161.057 C 104.403 161.056,103.136 159.736,103.334 157.979 C 103.567 155.912,105.442 154.820,107.361 155.632 M171.332 156.498 C 171.660 156.826,171.852 157.260,171.852 157.672 C 171.852 158.084,171.660 158.518,171.332 158.846 C 169.774 160.404,167.486 158.156,168.985 156.539 C 169.662 155.808,170.625 155.791,171.332 156.498 M210.041 157.672 C 211.100 157.672,211.791 159.674,211.097 160.732 C 210.034 162.355,207.407 161.470,207.407 159.489 C 207.407 158.564,208.746 157.336,209.488 157.579 C 209.643 157.630,209.892 157.672,210.041 157.672 M250.317 159.504 C 251.484 160.778,250.133 162.666,248.469 162.086 C 247.726 161.827,247.405 161.341,247.414 160.490 C 247.432 158.900,249.211 158.295,250.317 159.504 M44.183 167.037 C 44.301 167.183,44.463 167.789,44.543 168.385 L 44.688 169.468 45.950 169.582 C 48.186 169.785,48.353 170.359,46.673 172.057 L 45.516 173.228 45.819 174.497 C 46.524 177.449,46.045 178.065,43.994 176.843 L 42.727 176.088 41.161 177.145 C 38.398 179.010,37.541 178.492,38.890 175.773 L 39.763 174.012 38.720 172.668 C 37.077 170.552,37.260 170.049,39.748 169.832 L 41.505 169.679 42.236 168.226 C 42.986 166.736,43.625 166.347,44.183 167.037 M133.337 167.164 C 134.362 167.709,135.027 168.754,135.026 169.820 C 135.025 173.973,128.997 174.345,128.732 170.209 C 128.563 167.579,131.038 165.943,133.337 167.164 M230.070 167.134 C 232.200 168.392,231.248 171.712,228.766 171.678 C 227.808 171.665,226.971 171.163,226.550 170.349 C 225.429 168.182,227.948 165.880,230.070 167.134 M277.134 168.374 C 278.170 169.052,278.251 170.580,277.302 171.529 C 276.012 172.819,273.665 171.498,274.013 169.677 C 274.277 168.298,275.952 167.599,277.134 168.374 M42.540 171.424 C 42.365 171.530,41.861 171.675,41.419 171.746 L 40.615 171.875 41.260 172.752 C 41.615 173.234,41.905 173.750,41.905 173.899 C 41.905 174.084,42.097 174.131,42.514 174.047 C 42.860 173.978,43.185 174.026,43.267 174.159 C 43.565 174.641,43.704 174.360,43.630 173.424 C 43.568 172.642,43.646 172.357,44.036 171.942 C 44.488 171.461,44.492 171.428,44.111 171.426 C 43.887 171.424,43.513 171.380,43.280 171.327 C 43.048 171.274,42.714 171.318,42.540 171.424 M303.982 171.877 C 305.263 172.531,305.578 174.104,304.650 175.206 C 303.331 176.774,300.952 175.895,300.952 173.839 C 300.952 172.209,302.576 171.158,303.982 171.877 M183.799 174.056 C 185.629 174.821,185.185 177.566,183.232 177.566 C 181.215 177.566,180.621 174.933,182.434 174.027 C 183.083 173.703,182.947 173.700,183.799 174.056 M90.236 176.523 C 90.965 177.097,90.981 178.033,90.274 178.740 C 89.194 179.820,87.400 178.832,87.729 177.337 C 87.991 176.145,89.240 175.740,90.236 176.523 M255.988 177.451 C 256.738 178.200,256.603 179.337,255.680 180.046 C 254.706 180.793,253.122 179.944,253.122 178.676 C 253.122 177.080,254.871 176.333,255.988 177.451 M142.392 177.820 C 142.550 177.979,142.646 178.764,142.646 179.908 L 142.646 181.742 145.238 182.638 C 149.661 184.167,149.619 184.593,144.833 186.727 L 141.693 188.127 141.634 190.822 C 141.546 194.804,141.177 194.969,138.412 192.263 L 136.561 190.452 133.717 191.310 C 128.639 192.844,128.285 192.289,131.715 188.177 L 133.897 185.561 132.975 182.992 C 132.044 180.396,131.986 179.501,132.747 179.455 C 132.895 179.446,134.206 179.450,135.661 179.464 L 138.307 179.489 139.683 178.540 C 141.071 177.582,141.926 177.355,142.392 177.820 M213.138 178.820 C 214.718 180.400,212.979 182.999,210.918 182.138 C 209.904 181.714,209.439 180.941,209.620 179.977 C 209.952 178.206,211.887 177.569,213.138 178.820 M321.347 180.664 C 321.979 181.296,322.051 181.961,321.583 182.865 C 320.926 184.136,318.864 183.991,318.302 182.633 C 317.537 180.788,319.926 179.243,321.347 180.664 M139.689 180.857 C 139.024 181.326,138.746 181.376,136.778 181.376 C 135.582 181.376,134.603 181.416,134.603 181.465 C 134.603 181.514,134.889 182.363,135.238 183.352 C 136.091 185.769,136.072 185.920,134.691 187.595 C 133.282 189.302,133.304 189.363,135.134 188.798 C 136.956 188.235,136.712 188.179,138.304 189.529 L 139.683 190.699 139.683 189.047 C 139.683 186.910,139.819 186.738,142.417 185.616 C 144.948 184.522,144.937 184.550,143.122 183.926 C 140.829 183.139,140.741 183.053,140.741 181.582 C 140.741 180.159,140.709 180.137,139.689 180.857 M164.497 187.033 C 165.380 187.829,164.620 189.630,163.401 189.630 C 161.891 189.630,161.276 187.927,162.428 186.935 C 163.077 186.377,163.808 186.412,164.497 187.033 M73.188 191.754 C 73.979 192.491,73.699 193.905,72.686 194.291 C 71.531 194.730,70.277 193.580,70.692 192.462 C 71.129 191.285,72.321 190.947,73.188 191.754 M269.720 196.311 C 269.950 196.541,270.054 197.048,270.056 197.952 C 270.060 200.043,270.088 200.083,272.081 200.853 C 275.062 202.006,275.024 202.588,271.873 204.033 L 269.841 204.965 269.841 208.051 C 269.841 212.733,269.124 213.176,267.056 209.771 C 266.395 208.684,265.804 207.744,265.742 207.682 C 265.680 207.620,264.423 208.013,262.950 208.556 C 260.424 209.486,260.242 209.523,259.765 209.211 C 259.023 208.724,259.094 208.533,260.987 205.916 L 262.715 203.528 262.329 202.135 C 261.435 198.911,261.539 198.753,264.481 198.889 L 266.561 198.985 267.494 197.482 C 268.481 195.893,269.019 195.610,269.720 196.311 M102.179 198.549 C 105.791 200.297,104.502 205.777,100.487 205.746 C 97.895 205.726,96.187 203.505,96.827 200.985 C 97.441 198.568,99.903 197.447,102.179 198.549 M197.354 198.733 C 199.622 200.129,198.962 203.900,196.335 204.559 C 194.844 204.934,192.741 203.651,192.469 202.203 C 191.918 199.264,194.843 197.187,197.354 198.733 M267.585 200.571 C 267.171 200.992,266.983 201.025,265.627 200.911 C 264.802 200.842,264.127 200.855,264.127 200.940 C 264.127 201.025,264.289 201.704,264.488 202.449 L 264.849 203.804 263.927 205.112 C 263.272 206.040,263.122 206.372,263.407 206.258 C 266.351 205.076,266.497 205.084,267.335 206.455 L 267.723 207.090 267.724 205.753 C 267.725 204.011,267.928 203.684,269.460 202.960 L 270.738 202.355 269.919 202.026 C 268.676 201.528,268.512 201.398,268.268 200.727 L 268.042 200.106 267.585 200.571 M232.282 202.427 C 234.114 203.500,234.370 205.663,232.854 207.252 C 230.407 209.816,226.167 206.566,228.003 203.534 C 229.007 201.874,230.625 201.456,232.282 202.427 M163.467 202.742 C 164.687 203.206,164.945 204.596,163.979 205.497 C 163.457 205.983,163.005 206.033,162.246 205.687 C 160.471 204.878,161.644 202.049,163.467 202.742 M150.880 206.233 C 152.730 207.190,151.879 210.165,149.759 210.154 C 147.722 210.143,146.836 207.931,148.288 206.479 C 148.924 205.842,149.938 205.746,150.880 206.233 M212.867 212.830 C 214.358 213.794,213.582 216.381,211.801 216.381 C 209.686 216.381,208.871 213.781,210.643 212.686 C 211.370 212.237,212.015 212.278,212.867 212.830 M137.118 215.049 C 138.542 215.546,138.666 217.417,137.319 218.113 C 135.993 218.799,134.420 217.283,135.064 215.940 C 135.275 215.501,136.033 214.875,136.423 214.818 C 136.435 214.816,136.748 214.920,137.118 215.049 " stroke="none" fill="#444444" fill-rule="evenodd"></path></g></svg>