<svg xmlns="http://www.w3.org/2000/svg" viewBox="0 0 576 576">
	<defs>
		<style>.cls-1{fill:#f0d8d2;}.cls-2,.cls-6{fill:#fff;}.cls-2,.cls-3,.cls-4,.cls-5{stroke:#fff;}.cls-2,.cls-3{stroke-miterlimit:10;}.cls-3{fill:#231f20;}.cls-4,.cls-5{fill:none;stroke-linejoin:round;}.cls-4{stroke-linecap:round;stroke-width:2px;}.cls-6{font-size:13.84px;font-family:CenturyGothic-BoldItalic, Century Gothic;font-weight:700;font-style:italic;}</style>
	</defs>
	<g id="Layer_2" data-name="Layer 2">
		<g id="Layer_4" data-name="Layer 4">
			<rect class="cls-1" width="576" height="576"/>
			<ellipse class="cls-2" cx="169.67" cy="224.46" rx="1.74" ry="1.82"/>
			<ellipse class="cls-2" cx="234.88" cy="199.04" rx="1.18" ry="1.11"/>
			<circle class="cls-2" cx="135.4" cy="217.43" r="1.5"/>
			<circle class="cls-2" cx="191.3" cy="305.54" r="3.39"/>
			<circle class="cls-2" cx="301.11" cy="136.35" r="0.87"/>
			<circle class="cls-2" cx="253.98" cy="291.72" r="1.11"/>
			<circle class="cls-2" cx="348.56" cy="256.27" r="1.5"/>
			<circle class="cls-2" cx="388.35" cy="205.83" r="2.21"/>
			<circle class="cls-2" cx="232.98" cy="190.83" r="1.42"/>
			<circle class="cls-2" cx="319.19" cy="272.93" r="2.05"/>
			<circle class="cls-2" cx="162.88" cy="251.93" r="1.26"/>
			<circle class="cls-2" cx="230.14" cy="238.59" r="2.76"/>
			<circle class="cls-2" cx="180.09" cy="281.3" r="1.11"/>
			<circle class="cls-2" cx="260.77" cy="261.4" r="1.26"/>
			<circle class="cls-2" cx="243.88" cy="246.25" r="1.42"/>
			<circle class="cls-2" cx="302.14" cy="283.9" r="1.66"/>
			<circle class="cls-2" cx="180.88" cy="231.09" r="1.66"/>
			<circle class="cls-2" cx="229.19" cy="173.3" r="0.95"/>
			<circle class="cls-2" cx="164.77" cy="188.46" r="2.05"/>
			<circle class="cls-2" cx="345.09" cy="282.25" r="1.26"/>
			<circle class="cls-2" cx="253.59" cy="307.83" r="1.18"/>
			<circle class="cls-2" cx="333.4" cy="143.22" r="3.08"/>
			<circle class="cls-2" cx="384.56" cy="165.72" r="0.95"/>
			<circle class="cls-2" cx="334.35" cy="199.59" r="1.66"/>
			<circle class="cls-2" cx="216.88" cy="139.67" r="1.42"/>
			<circle class="cls-2" cx="286.04" cy="227.06" r="1.66"/>
			<circle class="cls-2" cx="350.46" cy="226.67" r="1.26"/>
			<circle class="cls-2" cx="432.88" cy="189.4" r="0.95"/>
			<circle class="cls-2" cx="400.67" cy="217.83" r="1.66"/>
			<circle class="cls-2" cx="196.98" cy="261.96" r="2.45"/>
			<circle class="cls-2" cx="393.25" cy="277.51" r="1.74"/>
			<circle class="cls-2" cx="392.14" cy="232.04" r="1.74"/>
			<circle class="cls-2" cx="199.9" cy="207.4" r="1.82"/>
			<circle class="cls-2" cx="282.01" cy="180.88" r="1.18"/>
			<circle class="cls-2" cx="250.67" cy="207.4" r="1.58"/>
			<circle class="cls-2" cx="120.25" cy="238.75" r="1.97"/>
			<circle class="cls-2" cx="302.14" cy="317.93" r="1.58"/>
			<circle class="cls-2" cx="222.56" cy="273.64" r="2.76"/>
			<circle class="cls-2" cx="293.06" cy="121.19" r="1.34"/>
			<circle class="cls-2" cx="126.88" cy="193.43" r="3.08"/>
			<circle class="cls-3" cx="254.77" cy="163.83" r="0.95"/>
			<circle class="cls-2" cx="299.93" cy="263.3" r="1.58"/>
			<circle class="cls-2" cx="163.04" cy="296.46" r="1.11"/>
			<circle class="cls-2" cx="320.54" cy="157.19" r="1.34"/>
			<circle class="cls-2" cx="373.19" cy="142.98" r="2.45"/>
			<circle class="cls-2" cx="236.77" cy="138.64" r="1.34"/>
			<circle class="cls-2" cx="187.59" cy="144.88" r="1.03"/>
			<circle class="cls-2" cx="321.09" cy="308.61" r="2.68"/>
			<circle class="cls-2" cx="461.77" cy="225.4" r="1.42"/>
			<circle class="cls-2" cx="213.09" cy="152.46" r="2.61"/>
			<circle class="cls-2" cx="451.82" cy="218.77" r="1.89"/>
			<circle class="cls-2" cx="240.4" cy="311.61" r="1.74"/>
			<circle class="cls-2" cx="368.46" cy="242.77" r="1.26"/>
			<circle class="cls-2" cx="366.25" cy="273.72" r="1.58"/>
			<circle class="cls-2" cx="416.77" cy="246.72" r="2.37"/>
			<circle class="cls-2" cx="303.09" cy="198.72" r="2.68"/>
			<circle class="cls-2" cx="286.11" cy="304.98" r="2.76"/>
			<circle class="cls-2" cx="410.14" cy="285.56" r="1.42"/>
			<circle class="cls-2" cx="227.3" cy="320.14" r="1.26"/>
			<circle class="cls-2" cx="369.56" cy="171.4" r="1.11"/>
			<circle class="cls-2" cx="411.09" cy="217.11" r="1.18"/>
			<circle class="cls-2" cx="402.56" cy="194.61" r="1.42"/>
			<circle class="cls-2" cx="437.61" cy="171.4" r="1.26"/>
			<circle class="cls-2" cx="472.67" cy="199.83" r="1.5"/>
			<circle class="cls-2" cx="360.88" cy="219.72" r="1.03"/>
			<circle class="cls-2" cx="273.72" cy="279.4" r="1.42"/>
			<circle class="cls-2" cx="339.4" cy="264.25" r="1.26"/>
			<path class="cls-4" d="M271.19,202.35c-12.63,3-21.31,22.26-18.15,35.21,3.11,12.76,16.89,23.21,33.94,20.69,0,0-23.6-6.57-25.73-24.48C259.19,216.56,273.35,201.84,271.19,202.35Z"/>
			<path class="cls-5" d="M447.4,184a58.39,58.39,0,0,1,5.85-.32l3.94-6,1.27,5.05,3.47.32-3.32,4.58,1.27,8.21-6.16-4.27L449,195.4l2.37-7.42Z"/>
			<polygon class="cls-5" points="261.99 129.82 260.61 133.44 256.47 134.71 259.12 136.2 258.59 141.09 261.88 138.01 265.18 140.03 264.22 135.46 266.77 132.59 263.48 132.69 261.99 129.82"/>
			<polygon class="cls-5" points="410.81 162.06 409.25 163.86 406.89 163.39 407.44 165.51 405.72 168.25 408.78 167.23 410.5 169.04 410.97 165.98 412.77 164.96 411.05 164.26 410.81 162.06"/>
			<polygon class="cls-5" points="211.7 225.13 209.82 227.28 207.02 226.72 207.67 229.25 205.62 232.52 209.26 231.31 211.32 233.46 211.88 229.81 214.04 228.59 211.98 227.75 211.7 225.13"/>
			<polygon class="cls-5" points="446.61 253.67 443.93 258.4 438.56 257.62 441.56 261.72 438.25 266.14 442.98 263.77 446.77 267.25 447.4 261.56 451.04 258.88 447.09 258.56 446.61 253.67"/>
			<polygon class="cls-5" points="190.19 165.72 187.98 171.56 183.25 173.3 186.25 175.04 185.46 181.51 189.25 177.25 193.35 178.35 192.25 174.25 195.56 171.09 191.3 170.77 190.19 165.72"/>
			<polygon class="cls-5" points="377.57 208.32 376.21 211.91 373.3 212.98 375.14 214.05 374.66 218.04 376.99 215.41 379.52 216.09 378.84 213.57 380.88 211.62 378.25 211.43 377.57 208.32"/>
			<polygon class="cls-5" points="359.29 300.48 357.24 303.61 353.02 303.37 354.11 307.23 350.61 312.05 356.4 309.88 359.17 314.46 359.05 307.95 363.51 305.9 359.53 304.33 359.29 300.48"/>
			<polygon class="cls-5" points="315.25 223.51 313.51 228.25 308.62 229.67 311.46 233.62 310.98 238.04 314.3 235.51 318.25 238.04 317.46 231.88 319.98 228.09 316.82 228.09 315.25 223.51"/>
			<polygon class="cls-5" points="301.51 159.56 299.3 162.88 294.25 162.09 296.62 166.35 294.56 170.3 298.51 169.04 301.98 172.98 301.98 167.3 305.93 163.98 302.46 163.67 301.51 159.56"/>
			<polygon class="cls-5" points="353.94 172.77 350.86 176.77 345.96 176.4 347.95 180.94 344.14 187.48 350.13 184.39 353.94 188.93 354.13 182.4 359.21 178.58 354.13 177.68 353.94 172.77"/>
			<polygon class="cls-5" points="134.54 271.36 133.07 274.42 129.56 274.53 131.94 277.59 130.13 280.98 133.75 278.61 136.24 280.19 135.45 276.57 137.82 274.31 134.66 274.08 134.54 271.36"/>
			<polygon class="cls-5" points="223.82 283.98 225.72 289.35 221.14 294.88 227.46 292.98 231.4 296.77 231.4 291.09 238.19 288.09 232.35 286.04 232.35 282.09 229.19 284.14 223.82 283.98"/>
			<text class="cls-6" transform="translate(210.25 345.92)">YOU SHINE LIKE THE STARS</text>
		</g>
	</g>
</svg>