<svg id="svg" version="1.1" 
	xmlns="http://www.w3.org/2000/svg" 
	xmlns:xlink="http://www.w3.org/1999/xlink" width="400" height="400" viewBox="0, 0, 400,400">
	<g id="svgg">
		<path id="path0" d="M204.600 83.956 C 204.600 85.339,203.324 86.030,202.592 85.045 C 201.832 84.021,202.521 82.704,203.727 82.876 C 204.346 82.964,204.600 83.278,204.600 83.956 M182.800 90.800 C 183.080 91.324,183.638 91.600,184.414 91.600 C 185.819 91.600,185.849 91.727,184.791 93.212 C 184.156 94.104,184.038 94.698,184.242 95.974 C 184.526 97.748,184.259 97.937,182.858 96.955 C 181.986 96.345,181.879 96.366,180.847 97.355 C 179.343 98.795,179.058 98.673,179.324 96.700 C 179.527 95.197,179.430 94.901,178.484 94.144 L 177.415 93.288 179.088 92.786 C 180.351 92.408,180.860 92.004,181.160 91.142 C 181.627 89.803,182.202 89.683,182.800 90.800 M181.600 92.221 C 181.600 92.562,181.053 93.032,180.384 93.265 C 179.298 93.644,179.240 93.741,179.843 94.182 C 180.346 94.549,180.444 94.970,180.229 95.827 C 179.942 96.971,179.945 96.974,180.772 96.226 C 181.454 95.609,181.778 95.553,182.573 95.915 C 183.510 96.342,183.535 96.312,183.327 95.029 C 183.202 94.258,183.298 93.587,183.556 93.427 C 184.270 92.986,184.067 92.400,183.200 92.400 C 182.760 92.400,182.400 92.220,182.400 92.000 C 182.400 91.780,182.220 91.600,182.000 91.600 C 181.780 91.600,181.600 91.879,181.600 92.221 M209.928 94.731 C 210.023 95.377,209.849 95.600,209.251 95.600 C 208.199 95.600,207.805 94.917,208.426 94.169 C 209.075 93.387,209.768 93.646,209.928 94.731 M165.184 95.381 C 165.951 96.305,165.526 97.400,164.400 97.400 C 163.766 97.400,163.361 97.142,163.272 96.681 C 163.134 95.962,163.830 94.800,164.400 94.800 C 164.566 94.800,164.919 95.061,165.184 95.381 M151.750 96.492 C 152.086 97.025,152.034 97.338,151.524 97.847 C 150.326 99.045,148.538 97.479,149.618 96.178 C 150.240 95.428,151.166 95.565,151.750 96.492 M232.526 97.260 C 234.897 98.508,234.113 102.000,231.462 102.000 C 229.175 102.000,228.347 98.348,230.400 97.315 C 231.621 96.700,231.471 96.704,232.526 97.260 M260.571 97.829 C 261.919 99.176,261.096 101.200,259.200 101.200 C 258.628 101.200,257.944 100.984,257.680 100.720 C 256.549 99.589,257.580 97.200,259.200 97.200 C 259.609 97.200,260.226 97.483,260.571 97.829 M131.200 100.600 C 131.200 101.323,130.985 101.600,130.424 101.600 C 129.503 101.600,129.042 100.989,129.352 100.181 C 129.750 99.145,131.200 99.474,131.200 100.600 M149.269 104.262 C 150.271 105.169,150.221 107.054,149.179 107.611 C 147.254 108.641,145.122 106.859,146.086 105.025 C 146.908 103.462,148.075 103.182,149.269 104.262 M223.799 108.796 C 224.119 109.805,223.758 110.400,222.825 110.400 C 221.865 110.400,221.123 109.466,221.436 108.651 C 221.794 107.716,223.489 107.821,223.799 108.796 M210.131 111.956 C 210.311 112.857,210.648 113.191,211.583 113.396 C 213.132 113.736,213.111 113.952,211.400 115.317 C 210.138 116.324,210.000 116.630,210.000 118.417 C 210.000 120.730,209.633 120.879,208.259 119.124 C 207.316 117.918,207.182 117.871,205.852 118.279 C 204.034 118.837,203.873 118.618,204.786 116.827 C 205.526 115.376,205.526 115.334,204.738 114.089 C 203.700 112.450,204.010 112.036,206.001 112.400 C 207.484 112.671,207.688 112.600,208.440 111.543 C 209.389 110.211,209.802 110.312,210.131 111.956 M208.511 112.752 C 208.115 113.402,207.747 113.509,206.570 113.318 L 205.118 113.082 205.771 114.345 C 206.255 115.280,206.317 115.807,206.012 116.377 C 205.433 117.460,205.471 117.514,206.655 117.287 C 207.443 117.137,207.896 117.328,208.446 118.043 L 209.182 119.000 209.191 117.622 C 209.197 116.680,209.540 115.889,210.275 115.122 C 211.260 114.094,211.283 114.000,210.552 114.000 C 210.061 114.000,209.609 113.606,209.377 112.975 C 209.011 111.979,208.986 111.973,208.511 112.752 M286.501 114.051 L 287.331 114.702 286.465 115.165 C 285.938 115.448,285.600 116.013,285.600 116.614 C 285.600 117.630,284.683 117.981,284.175 117.160 C 284.017 116.904,283.402 116.820,282.705 116.959 C 281.603 117.179,281.531 117.127,281.805 116.299 C 281.970 115.805,282.125 114.905,282.152 114.300 C 282.192 113.391,282.383 113.200,283.251 113.200 C 283.829 113.200,284.549 112.902,284.851 112.538 C 285.357 111.927,285.411 111.935,285.536 112.638 C 285.611 113.057,286.045 113.693,286.501 114.051 M177.800 113.800 C 177.800 114.991,176.239 114.872,176.068 113.668 C 175.958 112.892,176.092 112.758,176.868 112.868 C 177.489 112.956,177.800 113.267,177.800 113.800 M284.142 113.916 C 283.596 113.998,283.215 114.408,283.093 115.045 C 282.961 115.737,283.057 115.987,283.402 115.854 C 283.677 115.749,284.059 115.819,284.251 116.011 C 284.663 116.423,285.609 114.634,285.246 114.130 C 285.111 113.942,284.614 113.846,284.142 113.916 M267.928 115.104 C 268.024 115.777,267.856 116.000,267.251 116.000 C 266.294 116.000,265.840 115.395,266.163 114.551 C 266.506 113.660,267.779 114.058,267.928 115.104 M132.536 115.500 C 132.640 115.885,132.836 116.695,132.970 117.300 C 133.180 118.242,133.415 118.400,134.608 118.400 C 136.272 118.400,136.321 118.621,134.969 120.033 C 134.051 120.991,133.980 121.266,134.329 122.528 C 134.816 124.292,134.691 124.416,132.924 123.928 C 131.581 123.557,131.438 123.615,130.322 124.968 C 128.650 126.996,128.314 126.807,128.630 124.014 C 128.891 121.713,128.863 121.611,127.850 121.150 C 126.405 120.491,126.521 120.215,128.576 119.431 C 130.157 118.826,130.423 118.536,131.008 116.776 C 131.688 114.728,132.209 114.293,132.536 115.500 M131.422 117.937 C 131.191 118.959,130.789 119.413,129.716 119.861 C 128.449 120.390,128.379 120.497,129.005 120.954 C 129.528 121.337,129.657 121.879,129.534 123.170 L 129.371 124.880 130.247 123.782 C 130.982 122.860,131.325 122.725,132.392 122.938 C 133.636 123.187,133.656 123.167,133.393 121.969 C 133.199 121.083,133.317 120.533,133.824 119.973 C 134.495 119.232,134.489 119.200,133.663 119.200 C 133.069 119.200,132.635 118.797,132.263 117.900 L 131.724 116.600 131.422 117.937 M304.965 118.516 C 305.280 119.016,305.229 119.342,304.764 119.807 C 303.940 120.632,302.800 120.158,302.800 118.991 C 302.800 117.551,304.167 117.252,304.965 118.516 M257.600 119.000 C 257.600 119.800,257.400 120.000,256.600 120.000 C 255.631 120.000,255.186 118.947,255.867 118.267 C 256.547 117.586,257.600 118.031,257.600 119.000 M159.928 120.331 C 160.023 120.977,159.849 121.200,159.251 121.200 C 158.199 121.200,157.805 120.517,158.426 119.769 C 159.075 118.987,159.768 119.246,159.928 120.331 M246.394 121.849 C 246.399 122.995,246.531 123.119,248.000 123.354 C 248.880 123.494,249.600 123.772,249.600 123.971 C 249.600 124.170,248.880 124.903,248.000 125.600 C 246.546 126.752,246.399 127.037,246.394 128.734 C 246.385 131.570,245.951 131.906,244.474 130.223 C 243.021 128.568,242.851 128.537,241.110 129.599 C 238.535 131.169,238.207 130.576,240.021 127.627 C 241.193 125.723,241.217 125.594,240.621 124.441 C 239.544 122.358,239.758 121.889,241.641 122.207 C 243.184 122.468,243.353 122.397,244.497 121.009 C 245.844 119.375,246.383 119.613,246.394 121.849 M244.624 122.136 C 243.991 123.079,243.636 123.245,242.531 123.116 C 241.075 122.946,241.010 123.049,241.598 124.594 C 241.909 125.414,241.821 125.982,241.190 127.220 C 240.284 128.995,240.342 129.057,242.063 128.167 C 243.270 127.543,243.303 127.553,244.427 128.867 L 245.567 130.200 245.584 128.312 C 245.598 126.687,245.767 126.300,246.800 125.537 C 248.287 124.438,248.308 124.089,246.900 123.927 C 245.982 123.821,245.766 123.568,245.593 122.400 L 245.386 121.000 244.624 122.136 M318.294 124.799 C 318.560 125.844,318.948 126.296,319.825 126.583 C 320.471 126.795,321.055 127.000,321.123 127.040 C 321.190 127.080,320.711 127.897,320.057 128.856 C 318.889 130.571,318.876 130.645,319.301 133.300 C 319.843 136.692,319.732 136.781,317.220 134.976 L 315.161 133.497 313.554 134.789 C 311.514 136.429,311.299 136.175,312.203 133.191 L 312.934 130.776 311.667 129.469 C 309.868 127.613,310.020 127.200,312.500 127.198 L 314.600 127.196 315.996 125.014 C 317.497 122.667,317.745 122.644,318.294 124.799 M196.800 125.000 C 197.197 125.479,197.197 125.721,196.800 126.200 C 195.800 127.404,194.376 126.483,194.945 125.000 C 195.071 124.670,195.429 124.400,195.738 124.400 C 196.048 124.400,196.526 124.670,196.800 125.000 M316.000 126.400 C 315.085 127.880,314.877 128.000,313.227 128.000 L 311.443 128.000 312.674 129.300 C 313.849 130.541,313.881 130.663,313.383 132.000 C 312.564 134.196,312.661 134.670,313.726 133.670 C 314.898 132.569,315.089 132.579,316.938 133.836 C 318.822 135.116,318.900 135.039,318.401 132.404 C 318.028 130.438,318.071 130.182,318.982 128.989 C 320.016 127.633,319.953 127.200,318.723 127.200 C 318.217 127.200,317.903 126.817,317.740 126.000 C 317.426 124.428,317.184 124.484,316.000 126.400 M115.960 130.100 C 116.589 131.791,115.126 133.217,113.600 132.400 C 112.696 131.916,112.479 129.796,113.300 129.465 C 114.535 128.967,115.637 129.230,115.960 130.100 M301.400 131.405 C 301.400 131.925,301.088 132.244,300.500 132.328 C 299.608 132.455,299.195 131.339,299.880 130.653 C 300.411 130.122,301.400 130.612,301.400 131.405 M162.828 131.834 C 163.209 132.293,163.238 132.650,162.933 133.134 C 162.398 133.982,161.209 133.993,160.680 133.154 C 159.725 131.641,161.673 130.443,162.828 131.834 M90.341 133.346 C 91.452 135.674,88.258 137.858,86.424 136.024 C 84.695 134.295,85.894 131.871,88.377 132.081 C 89.484 132.174,89.914 132.451,90.341 133.346 M280.335 133.951 C 281.177 134.485,280.743 136.180,279.727 136.324 C 278.504 136.498,277.767 135.090,278.629 134.228 C 279.343 133.514,279.583 133.475,280.335 133.951 M211.373 136.061 C 213.218 136.901,213.201 139.107,211.343 139.953 C 209.011 141.016,207.183 137.698,209.289 136.223 C 210.349 135.480,210.136 135.497,211.373 136.061 M164.200 138.200 C 164.200 138.775,163.891 139.036,163.100 139.127 C 162.146 139.236,162.000 139.113,162.000 138.200 C 162.000 137.287,162.146 137.164,163.100 137.273 C 163.891 137.364,164.200 137.625,164.200 138.200 M233.400 138.600 C 233.400 139.665,233.266 139.800,232.205 139.800 C 230.970 139.800,230.485 138.999,230.964 137.750 C 231.426 136.547,233.400 137.236,233.400 138.600 M329.184 137.781 C 330.017 138.784,329.522 139.800,328.200 139.800 C 327.373 139.800,326.969 139.581,326.872 139.081 C 326.714 138.256,327.459 137.200,328.200 137.200 C 328.476 137.200,328.919 137.461,329.184 137.781 M189.049 140.185 C 189.173 140.506,188.340 142.388,187.198 144.366 C 178.037 160.240,181.639 172.141,197.321 177.812 C 201.296 179.250,200.544 180.411,195.650 180.393 C 188.790 180.367,181.380 176.493,177.554 170.932 C 171.128 161.593,176.119 144.625,186.556 140.322 C 188.612 139.475,188.774 139.466,189.049 140.185 M271.220 141.824 C 272.093 142.876,271.235 144.600,269.839 144.600 C 268.408 144.600,267.527 143.385,268.025 142.100 C 268.443 141.022,270.413 140.851,271.220 141.824 M184.993 142.739 C 181.699 144.748,178.016 150.536,176.631 155.882 C 174.039 165.883,180.051 175.436,190.681 178.204 C 194.893 179.301,195.807 179.001,192.947 177.460 C 183.418 172.323,179.613 165.838,180.851 156.843 C 181.471 152.345,182.941 148.541,186.085 143.300 C 186.974 141.819,186.717 141.688,184.993 142.739 M139.984 142.981 C 141.047 144.261,139.486 146.228,138.100 145.355 C 136.715 144.483,137.208 142.400,138.800 142.400 C 139.186 142.400,139.719 142.661,139.984 142.981 M174.826 142.814 C 175.698 143.281,175.841 144.399,175.120 145.120 C 173.775 146.465,171.945 144.828,173.042 143.262 C 173.736 142.271,173.787 142.258,174.826 142.814 M262.800 145.400 C 262.800 146.200,263.000 146.400,263.800 146.400 C 264.932 146.400,265.196 147.473,264.162 147.870 C 263.695 148.049,263.586 148.431,263.757 149.286 C 263.969 150.343,263.898 150.444,263.026 150.330 C 262.425 150.251,261.672 150.568,261.031 151.171 C 259.937 152.199,259.878 152.139,259.990 150.099 C 260.037 149.235,259.850 148.717,259.431 148.556 C 258.486 148.194,258.665 147.753,259.977 147.210 C 260.768 146.882,261.237 146.341,261.409 145.561 C 261.724 144.125,262.800 144.000,262.800 145.400 M261.391 147.318 C 260.255 148.556,260.503 150.065,261.747 149.478 C 262.849 148.958,263.812 147.200,262.996 147.200 C 262.705 147.200,262.407 147.028,262.333 146.818 C 262.260 146.607,261.836 146.832,261.391 147.318 M95.228 150.234 C 95.609 150.693,95.638 151.050,95.334 151.534 C 94.737 152.481,93.542 152.608,92.942 151.788 C 91.832 150.270,94.022 148.780,95.228 150.234 M278.967 149.843 C 279.931 150.212,279.791 152.286,278.781 152.606 C 277.255 153.090,276.143 151.217,277.280 150.080 C 277.825 149.535,278.074 149.500,278.967 149.843 M286.400 150.200 C 286.797 150.679,286.797 150.921,286.400 151.400 C 285.400 152.604,283.976 151.683,284.545 150.200 C 284.671 149.870,285.029 149.600,285.338 149.600 C 285.648 149.600,286.126 149.870,286.400 150.200 M315.186 151.174 C 315.721 152.174,315.715 152.228,314.971 152.971 C 314.040 153.903,312.847 153.741,312.333 152.612 C 311.486 150.754,314.223 149.374,315.186 151.174 M251.528 152.500 C 251.361 153.676,249.600 154.036,249.600 152.894 C 249.600 151.933,249.933 151.600,250.894 151.600 C 251.455 151.600,251.622 151.837,251.528 152.500 M119.128 155.057 C 119.971 156.563,118.266 158.251,116.981 157.184 C 116.384 156.689,116.191 155.142,116.667 154.667 C 117.179 154.154,118.763 154.405,119.128 155.057 M219.833 156.529 C 220.154 157.469,220.544 157.833,221.333 157.927 C 222.584 158.075,222.666 158.631,221.636 159.971 C 221.033 160.756,220.930 161.392,221.100 163.271 C 221.337 165.882,221.316 165.902,219.543 164.824 C 218.279 164.055,218.256 164.055,217.279 164.824 C 215.816 165.975,215.468 165.799,215.705 164.031 C 215.870 162.799,215.706 162.153,214.939 161.024 C 213.785 159.327,213.912 158.981,215.819 158.623 C 217.041 158.393,217.361 158.090,218.034 156.521 C 218.879 154.549,219.159 154.550,219.833 156.529 M321.919 156.235 C 321.985 156.694,321.762 157.299,321.424 157.580 C 320.205 158.592,318.608 156.995,319.620 155.776 C 320.330 154.921,321.773 155.209,321.919 156.235 M147.547 157.023 C 147.627 157.439,147.987 157.997,148.347 158.262 C 148.940 158.699,148.917 158.822,148.100 159.588 C 147.605 160.052,147.200 160.874,147.200 161.416 C 147.200 162.567,146.928 162.640,145.950 161.755 C 145.381 161.240,144.996 161.193,144.052 161.522 C 142.520 162.056,142.289 161.774,143.053 160.298 C 143.394 159.638,143.592 158.670,143.492 158.149 C 143.330 157.301,143.456 157.200,144.668 157.200 C 145.522 157.200,146.113 156.971,146.262 156.583 C 146.569 155.782,147.359 156.053,147.547 157.023 M199.582 156.578 C 200.481 157.661,199.938 159.000,198.600 159.000 C 197.140 159.000,196.647 157.394,197.838 156.522 C 198.746 155.859,198.991 155.867,199.582 156.578 M244.370 156.745 C 244.895 157.725,243.996 159.038,243.049 158.674 C 242.127 158.320,241.813 157.308,242.404 156.595 C 243.076 155.785,243.890 155.847,244.370 156.745 M218.368 157.781 C 217.994 158.554,217.357 159.068,216.500 159.288 C 214.969 159.682,214.956 159.734,216.013 161.218 C 216.587 162.024,216.747 162.672,216.558 163.425 C 216.291 164.487,216.294 164.488,217.317 163.817 C 218.283 163.184,218.408 163.187,219.439 163.862 L 220.533 164.579 220.282 162.745 C 220.104 161.449,220.198 160.690,220.603 160.156 C 221.380 159.128,221.339 158.800,220.433 158.800 C 219.953 158.800,219.530 158.390,219.301 157.704 L 218.936 156.608 218.368 157.781 M146.255 157.911 C 146.114 158.139,145.662 158.237,145.250 158.129 C 144.664 157.976,144.462 158.194,144.325 159.132 C 144.082 160.788,146.238 161.279,146.836 159.704 C 147.222 158.690,146.723 157.153,146.255 157.911 M126.567 159.326 C 127.993 160.369,126.395 162.696,124.900 161.755 C 123.610 160.943,124.117 158.800,125.600 158.800 C 125.736 158.800,126.171 159.037,126.567 159.326 M273.584 160.181 C 274.206 160.930,273.989 161.995,273.100 162.555 C 271.817 163.363,270.353 161.741,270.954 160.177 C 271.240 159.429,272.963 159.432,273.584 160.181 M161.500 164.111 C 162.209 164.660,162.120 166.405,161.338 167.269 C 159.496 169.304,156.390 166.479,158.100 164.322 C 158.974 163.220,160.246 163.141,161.500 164.111 M84.720 164.480 C 85.378 165.138,85.323 166.600,84.619 167.184 C 83.840 167.831,82.815 167.580,82.153 166.581 C 81.119 165.021,83.396 163.156,84.720 164.480 M256.950 168.092 C 257.494 168.956,256.397 170.238,255.431 169.867 C 254.797 169.624,254.557 167.976,255.080 167.453 C 255.523 167.010,256.473 167.335,256.950 168.092 M290.800 170.000 C 291.763 170.963,291.779 171.167,290.977 172.311 C 290.189 173.437,288.627 173.459,287.853 172.354 C 286.435 170.330,289.045 168.245,290.800 170.000 M170.550 170.492 C 170.886 171.025,170.834 171.338,170.324 171.847 C 169.126 173.045,167.338 171.479,168.418 170.178 C 169.040 169.428,169.966 169.565,170.550 170.492 M114.157 174.523 C 114.509 175.099,114.449 175.359,113.861 175.796 C 112.894 176.514,112.000 176.143,112.000 175.024 C 112.000 173.422,113.298 173.121,114.157 174.523 M310.772 178.100 C 310.796 179.044,310.967 179.200,311.976 179.200 C 313.692 179.200,313.749 179.720,312.186 181.105 C 311.037 182.122,310.800 182.608,310.800 183.942 C 310.800 186.033,310.480 186.171,308.804 184.803 L 307.421 183.675 305.872 184.465 C 303.891 185.476,303.619 185.175,304.944 183.438 C 306.232 181.749,306.231 181.779,305.017 180.187 C 303.811 178.606,303.924 178.475,306.307 178.689 C 308.181 178.858,308.210 178.842,309.163 177.140 C 310.203 175.285,310.708 175.586,310.772 178.100 M242.971 177.029 C 243.688 177.746,243.682 177.720,243.357 178.567 C 243.213 178.942,242.643 179.200,241.957 179.200 C 240.198 179.200,240.303 176.637,242.071 176.432 C 242.221 176.414,242.626 176.683,242.971 177.029 M309.123 178.694 C 308.531 179.701,308.261 179.823,306.960 179.671 L 305.473 179.498 306.332 180.704 C 307.083 181.759,307.116 181.972,306.595 182.404 C 305.704 183.144,305.878 183.693,306.841 183.178 C 307.549 182.799,307.856 182.895,308.785 183.786 L 309.889 184.843 310.117 183.144 C 310.266 182.029,310.657 181.210,311.252 180.761 L 312.159 180.076 311.182 179.938 C 310.473 179.838,310.150 179.491,310.003 178.671 L 309.800 177.542 309.123 178.694 M138.320 180.480 C 139.451 181.611,138.420 184.000,136.800 184.000 C 135.180 184.000,134.149 181.611,135.280 180.480 C 135.544 180.216,136.228 180.000,136.800 180.000 C 137.372 180.000,138.056 180.216,138.320 180.480 M182.200 181.600 C 182.200 183.157,180.250 183.038,180.071 181.471 C 179.953 180.443,180.043 180.353,181.071 180.471 C 181.974 180.574,182.200 180.800,182.200 181.600 M209.600 183.027 C 209.600 184.166,208.604 184.724,207.646 184.121 C 206.717 183.536,206.599 182.336,207.412 181.742 C 208.384 181.031,209.600 181.745,209.600 183.027 M236.800 183.413 C 236.800 184.651,235.761 185.133,234.914 184.286 C 234.067 183.439,234.549 182.400,235.787 182.400 C 236.604 182.400,236.800 182.596,236.800 183.413 M156.000 188.400 C 158.087 190.487,155.315 193.714,153.131 191.738 C 152.110 190.813,152.191 188.991,153.289 188.223 C 154.464 187.400,155.037 187.437,156.000 188.400 M222.379 187.989 C 223.980 188.845,223.603 191.200,221.866 191.200 C 220.096 191.200,219.243 188.881,220.700 188.032 C 221.575 187.522,221.511 187.524,222.379 187.989 M94.000 189.224 C 94.000 189.785,94.277 190.000,95.000 190.000 C 96.198 190.000,96.271 190.431,95.231 191.372 C 94.649 191.898,94.516 192.402,94.683 193.434 C 94.922 194.905,94.775 195.029,93.563 194.380 C 92.948 194.051,92.518 194.147,91.566 194.824 C 90.072 195.888,89.621 195.550,90.516 194.035 C 91.157 192.950,91.151 192.846,90.395 191.884 C 89.383 190.598,89.397 190.401,90.500 190.394 C 91.633 190.386,92.154 190.039,92.760 188.889 C 93.301 187.861,94.000 188.050,94.000 189.224 M255.756 189.429 C 255.889 189.775,255.811 190.405,255.584 190.829 C 254.756 192.377,252.459 191.304,252.994 189.619 C 253.314 188.612,255.387 188.469,255.756 189.429 M92.100 190.715 C 91.165 190.861,90.883 191.757,91.627 192.217 C 91.862 192.362,91.968 192.706,91.863 192.981 C 91.734 193.316,92.055 193.468,92.829 193.441 C 93.754 193.408,93.943 193.255,93.761 192.681 C 93.636 192.285,93.733 191.722,93.975 191.430 C 94.486 190.814,93.608 190.480,92.100 190.715 M274.384 191.781 C 275.020 192.547,274.564 193.894,273.560 194.213 C 272.052 194.691,270.952 192.808,272.080 191.680 C 272.731 191.029,273.799 191.075,274.384 191.781 M191.158 193.349 C 191.829 194.158,191.259 195.200,190.145 195.200 C 189.110 195.200,188.567 194.385,188.945 193.400 C 189.233 192.649,190.552 192.619,191.158 193.349 M126.132 194.967 C 126.431 195.746,125.788 196.495,124.957 196.335 C 124.071 196.164,123.706 194.829,124.424 194.385 C 125.041 194.004,125.871 194.287,126.132 194.967 M240.600 196.000 C 240.600 196.733,240.359 197.034,239.698 197.128 C 238.715 197.268,238.157 196.410,238.555 195.372 C 238.961 194.316,240.600 194.819,240.600 196.000 M161.600 196.968 C 161.600 198.254,161.719 198.375,163.600 199.000 C 166.143 199.845,166.113 200.217,163.400 201.417 L 161.200 202.390 161.200 204.395 C 161.200 206.735,160.921 206.833,159.017 205.161 L 157.606 203.923 155.732 204.561 C 152.637 205.616,152.489 205.374,154.671 202.826 C 156.114 201.139,156.133 201.076,155.671 199.348 C 154.992 196.811,154.998 196.801,157.300 196.787 C 158.509 196.780,159.730 196.525,160.176 196.187 C 161.333 195.312,161.600 195.458,161.600 196.968 M210.567 195.843 C 211.384 196.156,211.384 197.750,210.566 198.428 C 209.418 199.381,207.953 197.742,208.554 196.177 C 208.788 195.565,209.525 195.443,210.567 195.843 M160.000 197.205 C 159.670 197.415,158.643 197.591,157.718 197.594 L 156.035 197.600 156.626 199.273 C 157.207 200.920,157.197 200.970,156.027 202.426 L 154.839 203.905 156.437 203.499 C 157.841 203.143,158.146 203.197,158.943 203.947 C 160.199 205.126,160.400 205.031,160.400 203.254 C 160.400 201.788,160.494 201.673,162.224 201.012 C 164.203 200.256,164.209 200.028,162.271 199.365 C 161.377 199.059,160.941 198.617,160.800 197.876 C 160.644 197.054,160.468 196.906,160.000 197.205 M285.535 197.151 C 286.477 197.749,285.937 199.400,284.800 199.400 C 284.050 199.400,283.766 199.161,283.665 198.445 C 283.550 197.629,284.117 196.812,284.800 196.812 C 284.910 196.812,285.241 196.965,285.535 197.151 M177.400 202.595 C 177.400 203.477,176.156 203.916,175.504 203.264 C 174.832 202.592,175.495 201.530,176.498 201.672 C 177.088 201.756,177.400 202.075,177.400 202.595 M114.267 205.431 C 114.686 206.523,113.350 207.521,112.545 206.717 C 111.728 205.899,112.103 204.800,113.200 204.800 C 113.654 204.800,114.134 205.084,114.267 205.431 M250.000 209.769 C 250.000 210.979,250.163 211.192,251.400 211.600 C 253.207 212.196,253.164 212.514,251.153 213.421 L 249.505 214.164 249.723 216.277 C 249.991 218.871,249.544 219.251,248.402 217.402 C 247.433 215.835,247.005 215.736,244.938 216.600 C 242.750 217.514,242.593 217.143,244.250 214.969 C 245.131 213.815,245.260 213.333,245.046 211.996 L 244.791 210.400 246.349 210.400 C 247.571 210.400,248.050 210.183,248.563 209.400 C 249.471 208.015,250.000 208.151,250.000 209.769 M134.800 210.400 C 135.831 211.431,135.821 212.979,134.776 214.024 C 133.648 215.152,131.723 214.928,130.697 213.548 C 128.794 210.986,132.524 208.124,134.800 210.400 M200.026 210.014 C 200.560 210.300,200.800 210.853,200.800 211.800 C 200.800 213.851,198.681 214.740,197.131 213.338 C 195.107 211.506,197.557 208.693,200.026 210.014 M248.709 210.500 C 248.514 210.980,247.984 211.200,247.022 211.200 C 245.679 211.200,245.636 211.244,246.013 212.234 C 246.330 213.068,246.236 213.507,245.524 214.507 C 244.759 215.581,244.737 215.710,245.358 215.472 C 247.338 214.712,247.854 214.747,248.301 215.675 C 248.715 216.536,248.748 216.496,248.773 215.101 C 248.796 213.801,248.972 213.529,250.100 213.050 L 251.400 212.498 250.331 212.071 C 249.689 211.814,249.208 211.274,249.127 210.722 C 249.012 209.935,248.951 209.902,248.709 210.500 M224.469 212.662 C 225.931 213.986,224.982 216.400,223.000 216.400 C 221.053 216.400,220.131 214.202,221.462 212.731 C 222.285 211.822,223.509 211.794,224.469 212.662 M176.739 212.754 C 177.549 213.267,177.119 214.582,176.094 214.728 C 175.019 214.881,174.492 213.854,175.204 212.995 C 175.770 212.313,175.989 212.279,176.739 212.754 M167.920 215.280 C 169.041 216.401,167.950 218.292,166.456 217.818 C 165.448 217.498,165.093 216.548,165.616 215.571 C 166.081 214.701,167.200 214.560,167.920 215.280 M210.720 219.680 C 211.388 220.348,211.319 221.403,210.566 222.028 C 209.319 223.063,207.757 221.057,208.816 219.781 C 209.402 219.074,210.079 219.039,210.720 219.680 M159.000 222.156 C 159.000 223.363,157.675 223.964,157.004 223.061 C 156.222 222.009,156.688 221.132,157.951 221.278 C 158.670 221.362,159.000 221.638,159.000 222.156 " stroke="none" fill="#F00" fill-rule="evenodd"></path>
	</g>
</svg>